<?xml version="1.0" standalone="no"?>
<!DOCTYPE svg PUBLIC "-//W3C//DTD SVG 20010904//EN"
 "http://www.w3.org/TR/2001/REC-SVG-20010904/DTD/svg10.dtd">
<svg version="1.0" xmlns="http://www.w3.org/2000/svg"
 width="700.000000pt" height="700.000000pt" viewBox="0 0 700.000000 700.000000"
 preserveAspectRatio="xMidYMid meet">
<metadata>
Created by potrace 1.11, written by Peter Selinger 2001-2013
</metadata>
<g transform="translate(0.000000,700.000000) scale(0.100000,-0.100000)"
fill="#000000" stroke="none">
<path d="M1820 5268 c-921 -920 -1690 -1690 -1707 -1713 -38 -46 -43 -95 -15
-136 33 -50 3395 -3399 3417 -3405 13 -3 36 1 51 10 33 17 3407 3390 3422
3421 7 14 6 29 -3 52 -13 30 -3332 3359 -3406 3416 -20 15 -47 27 -60 27 -19
0 -406 -382 -1699 -1672z m1773 1287 c30 -66 73 -158 95 -205 22 -47 63 -137
92 -200 29 -63 85 -180 125 -260 40 -80 76 -161 80 -180 13 -57 13 -132 0
-180 -11 -38 -127 -334 -155 -395 -11 -23 -261 -662 -281 -717 -7 -21 -16 -35
-20 -30 -4 4 -33 72 -64 152 -31 80 -60 154 -65 165 -8 18 -58 144 -155 395
-18 47 -53 126 -78 175 -64 127 -80 196 -80 335 0 102 3 125 32 210 18 53 62
148 101 215 72 126 142 269 230 470 59 135 80 178 84 173 2 -1 28 -57 59 -123z
m-362 -137 c-5 -13 -22 -52 -39 -88 -16 -36 -39 -87 -51 -115 -13 -27 -67
-140 -121 -250 -54 -110 -104 -224 -110 -254 -21 -89 -8 -189 35 -279 21 -43
48 -107 60 -144 l24 -68 -516 0 -516 0 609 610 c335 335 615 609 621 610 9 0
10 -7 4 -22z m1224 -589 l610 -610 -509 5 c-280 3 -511 7 -513 10 -4 3 27 89
47 131 42 89 72 207 71 278 -1 59 -23 123 -117 325 -126 271 -211 472 -201
472 1 0 277 -275 612 -611z m-1366 -804 c16 -14 39 -49 49 -78 11 -29 58 -149
105 -267 131 -329 167 -430 167 -462 0 -40 -22 -89 -56 -125 -260 -271 -458
-461 -499 -479 -19 -8 -50 -14 -68 -14 -36 0 -343 111 -597 217 -146 61 -198
93 -222 137 -7 12 -12 215 -15 558 l-6 538 556 0 555 0 31 -25z m2023 -507
c-2 -330 -7 -545 -13 -566 -12 -38 -56 -73 -119 -95 -25 -8 -186 -70 -359
-137 -330 -127 -370 -137 -429 -106 -41 21 -506 485 -527 526 -8 16 -16 45
-17 63 -1 28 27 119 62 202 5 11 34 88 66 170 31 83 63 164 70 180 7 17 31 75
54 130 42 103 77 151 114 158 11 2 264 5 561 6 l540 1 -3 -532z m-3328 -25
c-2 -279 -7 -509 -10 -512 -2 -3 -51 18 -107 46 -223 112 -378 102 -627 -37
-58 -33 -136 -73 -175 -91 -108 -49 -296 -118 -288 -106 10 17 1197 1205 1205
1206 4 1 5 -227 2 -506z m4720 -724 c-9 -15 -335 135 -489 223 -138 80 -225
108 -340 108 -104 1 -148 -11 -275 -70 -66 -32 -107 -46 -111 -39 -3 6 -5 122
-2 257 7 490 11 717 12 727 1 5 273 -262 605 -594 333 -333 603 -608 600 -612z
m-2691 -580 l-282 -281 -280 281 c-155 154 -281 284 -281 288 0 4 125 133 277
285 l278 278 285 -285 284 -284 -281 -282z m2182 639 c138 -64 300 -140 360
-168 61 -29 137 -65 170 -80 33 -16 93 -44 133 -62 l73 -35 -58 -35 c-32 -19
-85 -47 -118 -63 -454 -214 -779 -363 -825 -380 -19 -7 -45 -11 -56 -9 -24 4
-592 222 -1098 422 l-150 59 55 21 c66 25 904 353 1049 411 155 61 158 61 465
-81z m-4505 88 c98 -17 191 -50 364 -130 43 -21 115 -52 160 -71 76 -31 128
-51 446 -170 69 -26 131 -53 139 -61 15 -14 4 -20 -104 -63 -11 -5 -37 -16
-58 -25 -20 -9 -101 -41 -180 -72 -78 -31 -216 -85 -307 -121 -452 -178 -478
-187 -570 -187 l-85 0 -165 78 c-91 43 -190 89 -220 103 -275 127 -580 276
-576 281 3 2 78 39 168 82 90 42 225 107 301 144 76 36 143 66 149 66 6 0 25
10 42 23 145 109 319 152 496 123z m1355 -566 c43 -16 532 -501 552 -548 28
-63 15 -107 -175 -583 -113 -281 -110 -275 -141 -296 -24 -16 -73 -18 -579
-19 l-554 -2 3 521 c2 287 6 537 9 555 10 61 44 83 282 176 122 48 232 92 243
97 69 31 284 107 307 108 15 1 39 -4 53 -9z m1571 -39 c182 -69 364 -140 399
-156 17 -7 76 -32 131 -54 104 -43 135 -66 153 -113 6 -17 11 -189 11 -455 1
-235 2 -471 2 -524 1 -52 -1 -100 -4 -105 -6 -9 -91 -9 -803 -3 -307 2 -328 7
-364 77 -23 46 -182 442 -250 623 -62 168 -61 180 38 282 84 88 350 352 416
412 87 80 100 81 271 16z m-3735 -175 c186 -86 217 -100 399 -188 101 -49 204
-94 228 -100 63 -16 157 -4 227 27 33 15 103 44 156 65 l97 38 -3 -492 c-2
-270 -4 -499 -4 -509 -1 -11 -231 212 -606 588 -333 333 -605 607 -605 610 0
11 21 3 111 -39z m5799 19 c-19 -23 -1193 -1195 -1197 -1195 -2 0 -2 227 -1
505 1 278 3 505 3 505 12 0 136 -49 207 -81 76 -34 106 -42 163 -44 97 -4 154
13 318 98 136 69 193 96 282 133 22 9 54 22 70 30 27 12 155 62 164 63 2 1 -2
-6 -9 -14z m-2851 -817 c52 -128 100 -246 107 -263 52 -126 227 -592 246 -660
28 -94 16 -151 -70 -335 -22 -47 -51 -110 -64 -140 -14 -30 -42 -90 -62 -133
-21 -44 -64 -136 -96 -205 -32 -70 -78 -170 -102 -222 -25 -52 -47 -101 -50
-109 -4 -14 -10 -4 -91 169 -21 47 -61 130 -87 185 -26 55 -86 183 -133 285
-46 102 -102 221 -122 265 -50 106 -54 158 -22 255 23 68 116 315 137 365 5
11 37 92 70 180 131 339 170 441 180 457 5 10 10 23 10 29 0 16 42 109 49 109
4 0 49 -105 100 -232z m-619 -647 c-9 -25 -21 -55 -25 -65 -5 -11 -25 -69 -46
-130 -31 -92 -37 -123 -36 -181 2 -71 20 -120 130 -355 76 -164 179 -412 173
-417 -4 -4 -1196 1183 -1196 1191 0 2 229 3 508 4 l508 0 -16 -47z m1545 24
c258 -3 471 -8 473 -10 2 -1 -268 -274 -600 -605 -331 -331 -604 -597 -606
-592 -3 10 8 35 189 412 67 140 131 280 141 310 30 82 21 151 -36 283 -25 59
-46 112 -46 116 0 5 -7 22 -15 37 -8 16 -15 34 -15 41 0 11 28 23 40 17 3 -1
217 -5 475 -9z"/>
</g>
</svg>
