<?xml version="1.0" encoding="utf-8"?>
<!-- Generator: Adobe Illustrator 25.1.0, SVG Export Plug-In . SVG Version: 6.00 Build 0)  -->
<svg version="1.1" id="Capa_1" xmlns="http://www.w3.org/2000/svg" xmlns:xlink="http://www.w3.org/1999/xlink" x="0px" y="0px"
	 viewBox="0 0 93.54 93.54" style="enable-background:new 0 0 93.54 93.54;" xml:space="preserve">
<style type="text/css">
	.st0{fill-rule:evenodd;clip-rule:evenodd;fill:#AE9520;}
</style>
<path class="st0" d="M23.91,70.54C16.59,63.23,9.29,55.89,1.93,48.62c-1.19-1.17-1.21-1.91-0.03-3.08
	c14.3-14.24,28.54-28.54,42.85-42.77c2.44-2.42,1.8-2.98,4.82,0.04C63.75,17,77.94,31.19,92.13,45.37c1.77,1.77,1.77,1.77,0.04,3.5
	c-14.44,14.43-28.87,28.87-43.3,43.3c-1.66,1.66-1.67,1.66-3.37-0.04C38.3,84.94,31.1,77.74,23.91,70.54 M68.36,26.05
	c-4.98-0.01-9.74-0.04-14.49,0.04c-0.44,0.01-1.09,0.55-1.28,0.99c-1.34,3.24-2.62,6.49-3.82,9.77c-0.17,0.48,0.07,1.35,0.44,1.74
	c2.09,2.22,4.24,4.38,6.47,6.46c0.4,0.38,1.36,0.55,1.89,0.36c3.13-1.11,6.21-2.39,9.33-3.54c1.09-0.4,1.42-1.03,1.41-2.17
	C68.27,35.21,68.33,30.73,68.36,26.05 M68.33,68.2c-0.02-4.93,0-9.58-0.09-14.21c-0.01-0.51-0.57-1.25-1.06-1.45
	c-3.22-1.36-6.47-2.62-9.75-3.84c-0.41-0.16-1.15-0.02-1.47,0.27c-2.3,2.17-4.56,4.38-6.76,6.65c-0.35,0.36-0.62,1.17-0.46,1.61
	c1.22,3.33,2.53,6.63,3.9,9.91c0.18,0.44,0.87,0.95,1.33,0.96C58.68,68.19,63.38,68.18,68.33,68.2 M26.04,68.13
	c4.98-0.01,9.74,0,14.49-0.05c0.39-0.01,0.97-0.38,1.12-0.73c1.36-3.27,2.67-6.57,3.89-9.9c0.18-0.49-0.01-1.38-0.37-1.76
	c-2.18-2.29-4.43-4.51-6.72-6.69c-0.32-0.3-1.05-0.48-1.45-0.33c-3.33,1.23-6.65,2.52-9.93,3.88c-0.41,0.17-0.9,0.76-0.91,1.17
	C26.08,58.47,26.07,63.23,26.04,68.13 M26.03,26.07c0.04,4.82,0.03,9.53,0.16,14.23c0.01,0.52,0.71,1.25,1.26,1.48
	c3.05,1.29,6.14,2.52,9.27,3.62c0.56,0.2,1.57-0.07,2.03-0.5c2.19-2.03,4.29-4.15,6.33-6.33c0.39-0.43,0.64-1.38,0.45-1.9
	c-1.15-3.17-2.46-6.28-3.66-9.43c-0.34-0.88-0.78-1.22-1.76-1.2C35.53,26.09,30.94,26.07,26.03,26.07 M47.19,90.05
	c2.13-4.56,4.11-8.68,5.95-12.87c0.34-0.77,0.34-1.88,0.06-2.68c-1.15-3.3-2.45-6.54-3.72-9.8c-0.7-1.81-1.47-3.59-2.34-5.72
	c-2.12,5.47-4.12,10.53-6.03,15.62c-0.25,0.67-0.34,1.63-0.05,2.25C42.96,81.14,44.99,85.36,47.19,90.05 M4.34,47.1
	c4.43,2.1,8.52,4.11,12.69,5.96c0.77,0.35,1.89,0.35,2.7,0.07c3.09-1.07,6.12-2.3,9.16-3.5c2-0.78,3.97-1.61,6.02-2.44
	c-0.19-0.22-0.25-0.34-0.33-0.37c-3.47-1.36-7.04-2.49-10.38-4.13c-3.87-1.9-7.47-2.5-11.11,0.3c-0.17,0.13-0.43,0.15-0.64,0.25
	C9.83,44.47,7.22,45.72,4.34,47.1 M47.18,35.14c2.03-5.16,3.76-9.83,5.71-14.4c0.77-1.8,0.72-3.28-0.23-4.96
	c-1.07-1.89-1.89-3.92-2.81-5.88c-0.83-1.77-1.66-3.55-2.66-5.7c-1.48,3.14-2.51,6.01-4.09,8.55c-2.38,3.81-2.68,7.46-0.25,11.28
	c0.09,0.14,0.11,0.33,0.17,0.49C44.34,27.88,45.66,31.26,47.18,35.14 M59.15,47.09c5.75,2.25,11.06,4.36,16.41,6.38
	c0.47,0.18,1.21-0.14,1.75-0.39c3.54-1.61,7.08-3.26,10.6-4.92c0.63-0.29,1.21-0.67,2.05-1.15c-4.61-2.16-8.9-4.21-13.22-6.16
	c-0.53-0.23-1.34-0.1-1.93,0.12C69.72,42.92,64.67,44.93,59.15,47.09 M47.12,39.56l-7.53,7.53l7.59,7.59l7.53-7.53L47.12,39.56z
	 M86.88,43.28c0.03-0.07,0.07-0.14,0.1-0.21L70.79,26.88c-0.07,4.38-0.13,8.91-0.2,13.47c0.34-0.12,0.68-0.19,0.97-0.36
	c3.03-1.78,5.89-1.69,8.91,0.25C82.45,41.5,84.73,42.28,86.88,43.28 M67.68,23.8L51.19,7.3c1.27,3.24,2.8,6.29,4.15,9.42
	c0.35,0.79,0.37,1.87,0.15,2.72c-0.38,1.5-1.07,2.93-1.57,4.23C58.56,23.72,63.05,23.76,67.68,23.8 M23.79,40.39
	c0.04-4.64,0.07-9.12,0.11-13.77L7.47,43.04c2.25-0.79,4.47-1.62,6.45-2.83c2.95-1.81,5.78-2.16,8.77-0.24
	C23.01,40.18,23.42,40.26,23.79,40.39 M43.31,7.55c-0.09-0.04-0.17-0.07-0.26-0.11L26.68,23.81c4.72-0.01,9.23-0.01,13.81-0.02
	c-0.32-0.83-0.53-1.69-0.95-2.42c-1.31-2.3-0.89-4.39,0.33-6.6C41.15,12.44,42.17,9.97,43.31,7.55 M70.6,53.83
	c-0.02,4.55-0.04,9.05-0.05,13.64L86.9,51.12c-2.64,0.99-5.22,2.05-7.65,3.4c-2,1.12-3.85,1.52-5.95,0.37
	C72.43,54.42,71.43,54.15,70.6,53.83 M23.82,67.4c0.02-4.6,0.05-9.04,0.07-13.64c-1.14,0.45-2.28,0.81-3.34,1.34
	c-1.51,0.76-2.88,0.66-4.37-0.1c-2.78-1.41-5.62-2.68-8.44-4c-0.04,0.07-0.07,0.14-0.11,0.2L23.82,67.4z M67.32,70.72
	c-4.39-0.06-8.89-0.13-13.44-0.2c0.48,1.18,0.9,2.38,1.43,3.52c0.62,1.34,0.58,2.54-0.13,3.9c-1.49,2.88-2.79,5.85-4.18,8.78
	c0.07,0.04,0.13,0.08,0.19,0.12L67.32,70.72z M26.76,70.32l16.26,16.26c-1.23-3.25-2.74-6.33-4.09-9.46
	c-0.3-0.69-0.24-1.66-0.04-2.41c0.4-1.46,1.02-2.87,1.58-4.39C35.86,70.32,31.45,70.32,26.76,70.32"/>
</svg>
