<svg xmlns="http://www.w3.org/2000/svg" width="70" height="69" viewBox="0 0 70 69">
<style>
  .a{
    fill:#A09028;
  }
</style>
    <path d="M54 5.9c0.2-1 0.4-1.9 0.6-3.1 1.7 3.3 3.3 6.5 5 9.8 -3.5-1.2-6.9-2.3-10.4-3.5 1-0.4 1.8-0.7 2.8-1 -0.3-0.2-0.5-0.4-0.7-0.5C32.9-3.6 8.4 7.1 4.2 28.1c-0.6 3.3-0.8 6.6-0.5 9.9 0.1 1.1-0.4 1.8-1.2 1.9 -0.9 0.1-1.6-0.5-1.7-1.6C-0.1 28.4 2.6 19.6 9.1 12c5.8-6.7 13.2-10.6 22-11.6 7.8-0.9 15.1 0.7 21.8 4.8C53.2 5.4 53.5 5.6 54 5.9z" class="a"/>
    <path d="M16.7 63.8c-0.2 0.9-0.3 1.8-0.5 2.9 -1.8-3.3-3.4-6.4-5.2-9.7 3.5 1.1 6.9 2.1 10.5 3.3 -1 0.4-1.8 0.7-2.9 1.1 1.5 0.7 2.7 1.4 4 2 18.8 8 39.9-3.5 43.4-23.7 0.5-2.9 0.5-5.8 0.3-8.6 -0.1-1.1 0.4-1.8 1.3-1.9 0.9-0.1 1.5 0.5 1.6 1.6 2.1 17.7-10.5 34.6-28.1 37.6 -8.3 1.4-16.1 0-23.4-4.2 -0.2-0.1-0.4-0.2-0.7-0.4C16.9 63.8 16.9 63.8 16.7 63.8z" class="a"/>
    <path d="M30.9 33c1.6-1.2 3.1-1.7 4.8-1.6 3.3 0.2 5.4 2.4 5.5 5.8 0.1 3.4-1.8 5.7-5.1 6.1 -4.5 0.5-7.1-1.5-7.8-6 -0.4-2.5-0.3-5.1 0.4-7.6 1.4-4.3 6.6-6.1 10.3-3.5 0.9 0.6 1.2 1.4 0.7 2.1 -0.5 0.7-1.1 0.8-2.2 0.2 -0.6-0.3-1.3-0.7-2-0.7 -2.2-0.3-3.7 0.7-4.3 2.9C31.1 31.3 31.1 32 30.9 33zM38.3 37.3c0-2.1-1.3-3.3-3.4-3.4 -1.8 0-3.8 1.4-3.7 2.7 0 2.6 1.4 4.2 3.7 4.1C37.1 40.8 38.3 39.6 38.3 37.3z" class="a"/>
    <path d="M43.4 34.3c0.1-1.2 0.2-2.4 0.4-3.6 0.7-4 3.6-6.1 7.6-5.5 3 0.4 4.7 2.1 5.3 5.3 0.5 2.5 0.5 5 0 7.5 -0.7 3.6-2.9 5.4-6.4 5.4 -3.6 0-5.8-1.8-6.5-5.4C43.6 36.8 43.5 35.5 43.4 34.3zM54.3 34.4c-0.3-1.5-0.4-2.9-0.8-4.3 -0.5-1.6-1.6-2.3-3.2-2.3 -1.7 0-2.8 0.7-3.3 2.3 -0.9 2.8-0.9 5.7 0 8.5 0.5 1.5 1.6 2.2 3.2 2.2 1.7 0 2.8-0.6 3.3-2.2C53.9 37.3 54.1 35.8 54.3 34.4z" class="a"/>
    <path d="M20.7 28.2c-1.6 0-3.1 0-4.5 0 -0.3 0-0.7 0-1-0.1 -0.7-0.2-1.1-0.6-1-1.4 0.1-0.7 0.5-1.1 1.2-1.2 2.8 0 5.7 0 8.5 0 0.4 0 1 0.4 1.1 0.8 0.1 0.4 0 1-0.3 1.4 -1.1 1.4-2.4 2.7-3.6 4.2 0.3 0.1 0.6 0.2 0.8 0.3 2 0.5 3.3 1.7 3.7 3.7 0.2 1.1 0.2 2.3 0.1 3.4 -0.2 1.6-1.3 2.8-2.8 3.5 -3.1 1.3-7.1 0.5-9-1.9 -0.7-0.8-0.7-1.6-0.1-2.2 0.6-0.6 1.4-0.5 2.2 0.3 1.4 1.6 3.1 2.1 5.1 1.5 1.5-0.4 2.1-1.6 1.9-3.5 -0.2-1.5-1-2.3-2.6-2.5 -0.7-0.1-1.4 0.1-2.1-0.1 -0.5-0.1-1.1-0.4-1.3-0.8 -0.2-0.4 0-1.2 0.3-1.5C18.2 30.9 19.4 29.7 20.7 28.2z" class="a"/>
    <path d="M10.4 48.2c0 2.9-2.4 5.2-5.3 5.2 -2.9 0-5.2-2.4-5.2-5.3 0-2.9 2.4-5.2 5.3-5.2C8.1 42.9 10.4 45.3 10.4 48.2zM5.1 45.8c-1.2 0-2.3 1.1-2.3 2.3 0 1.2 1.1 2.3 2.3 2.3 1.3 0 2.4-1.1 2.4-2.4C7.4 46.9 6.3 45.8 5.1 45.8z" class="a"/>
    <path d="M64.8 15.6c2.9 0 5.3 2.4 5.3 5.3 0 2.9-2.4 5.2-5.2 5.2 -2.9 0-5.3-2.3-5.3-5.3C59.6 17.9 62 15.6 64.8 15.6zM67.2 20.8c0-1.2-1.1-2.3-2.3-2.3 -1.3 0-2.4 1.1-2.4 2.4 0 1.2 1.1 2.3 2.4 2.3C66.1 23.2 67.2 22.1 67.2 20.8z" class="a"/>
</svg>