<?xml version="1.0" encoding="utf-8"?>
<!-- Generator: Adobe Illustrator 16.0.0, SVG Export Plug-In . SVG Version: 6.00 Build 0)  -->
<!DOCTYPE svg PUBLIC "-//W3C//DTD SVG 1.1//EN" "http://www.w3.org/Graphics/SVG/1.1/DTD/svg11.dtd">
<svg version="1.1" id="Capa_1" xmlns="http://www.w3.org/2000/svg" xmlns:xlink="http://www.w3.org/1999/xlink" x="0px" y="0px"
	 width="89px" height="125px" viewBox="0 0 89 125" enable-background="new 0 0 89 125" xml:space="preserve">
<g>
	<path fill-rule="evenodd" clip-rule="evenodd" fill="#A49658" d="M33.271,125c-2.14-1.625-2.293-2.748-0.628-4.965
		c8.97-11.938,15.099-25.172,18.064-39.834c1.019-5.029,1.696-10.105,1.591-15.252c-0.081-3.798-2.936-7.042-6.557-7.56
		c-3.855-0.552-7.42,1.585-8.623,5.227c-0.239,0.722-0.396,1.505-0.413,2.263c-0.406,17.252-6.63,32.375-16.825,46.045
		c-1.07,1.432-2.58,1.703-3.82,0.775c-1.271-0.949-1.403-2.479-0.268-3.979c6.167-8.16,10.754-17.107,13.445-26.998
		c1.436-5.275,2.176-10.648,2.309-16.125c0.151-6.174,4.922-11.51,10.836-12.341c6.527-0.917,12.449,2.658,14.471,8.756
		c1.002,3.017,0.742,6.128,0.482,9.197c-1.668,19.635-8.769,37.186-20.52,52.914c-0.521,0.691-1.219,1.252-1.834,1.877H33.271z"/>
	<path fill="none" stroke="#F6F6F5" stroke-width="0.856" stroke-miterlimit="10" d="M33.271,125
		c-2.14-1.625-2.293-2.748-0.628-4.965c8.97-11.938,15.099-25.172,18.064-39.834c1.019-5.029,1.696-10.105,1.591-15.252
		c-0.081-3.798-2.936-7.042-6.557-7.56c-3.855-0.552-7.42,1.585-8.623,5.227c-0.239,0.722-0.396,1.505-0.413,2.263
		c-0.406,17.252-6.63,32.375-16.825,46.045c-1.07,1.432-2.58,1.703-3.82,0.775c-1.271-0.949-1.403-2.479-0.268-3.979
		c6.167-8.16,10.754-17.107,13.445-26.998c1.436-5.275,2.176-10.648,2.309-16.125c0.151-6.174,4.922-11.51,10.836-12.341
		c6.527-0.917,12.449,2.658,14.471,8.756c1.002,3.017,0.742,6.128,0.482,9.197c-1.668,19.635-8.769,37.186-20.52,52.914
		c-0.521,0.691-1.219,1.252-1.834,1.877H33.271z"/>
	<path fill-rule="evenodd" clip-rule="evenodd" fill="#A49658" d="M48.896,0c2.616,0.328,5.239,0.583,7.841,0.993
		c5.079,0.802,9.983,2.223,14.668,4.364c1.338,0.613,1.883,1.609,1.677,2.917c-0.175,1.1-1.078,2.028-2.227,2.09
		c-0.579,0.032-1.216-0.13-1.755-0.361C58.998,5.618,48.425,4.584,37.57,5.549c-6.159,0.547-12.089,1.998-17.755,4.496
		c-1.631,0.722-3.082,0.223-3.705-1.183c-0.643-1.452,0.006-2.847,1.709-3.606c6.564-2.931,13.467-4.479,20.613-5.023
		C38.995,0.191,39.55,0.081,40.106,0H48.896z"/>
	<path fill="none" stroke="#F6F6F5" stroke-width="0.856" stroke-miterlimit="10" d="M48.896,0c2.616,0.328,5.239,0.583,7.841,0.993
		c5.079,0.802,9.983,2.223,14.668,4.364c1.338,0.613,1.883,1.609,1.677,2.917c-0.175,1.1-1.078,2.028-2.227,2.09
		c-0.579,0.032-1.216-0.13-1.755-0.361C58.998,5.618,48.425,4.584,37.57,5.549c-6.159,0.547-12.089,1.998-17.755,4.496
		c-1.631,0.722-3.082,0.223-3.705-1.183c-0.643-1.452,0.006-2.847,1.709-3.606c6.564-2.931,13.467-4.479,20.613-5.023
		C38.995,0.191,39.55,0.081,40.106,0H48.896z"/>
	<path fill-rule="evenodd" clip-rule="evenodd" fill="#A49658" d="M45.724,125c-2.131-1.326-2.403-2.48-1.077-4.629
		c4.513-7.311,8.287-15.002,11.783-22.84c0.116-0.258,0.214-0.523,0.341-0.779c0.516-1.039,1.304-1.643,2.518-1.553
		c1.185,0.088,1.984,0.703,2.34,1.824c1.855,5.844,3.717,11.688,5.529,17.545c0.5,1.611-0.232,2.959-1.691,3.414
		c-1.438,0.447-2.751-0.283-3.282-1.918c-1.03-3.168-2.007-6.352-3.011-9.525c-0.116-0.371-0.252-0.74-0.451-1.316
		c-0.319,0.594-0.537,1.008-0.76,1.42c-2.93,5.432-5.835,10.881-8.822,16.281c-0.445,0.807-1.293,1.389-1.951,2.076H45.724z"/>
	<path fill="none" stroke="#F6F6F5" stroke-width="0.856" stroke-miterlimit="10" d="M45.724,125
		c-2.131-1.326-2.403-2.48-1.077-4.629c4.513-7.311,8.287-15.002,11.783-22.84c0.116-0.258,0.214-0.523,0.341-0.779
		c0.516-1.039,1.304-1.643,2.518-1.553c1.185,0.088,1.984,0.703,2.34,1.824c1.855,5.844,3.717,11.688,5.529,17.545
		c0.5,1.611-0.232,2.959-1.691,3.414c-1.438,0.447-2.751-0.283-3.282-1.918c-1.03-3.168-2.007-6.352-3.011-9.525
		c-0.116-0.371-0.252-0.74-0.451-1.316c-0.319,0.594-0.537,1.008-0.76,1.42c-2.93,5.432-5.835,10.881-8.822,16.281
		c-0.445,0.807-1.293,1.389-1.951,2.076H45.724z"/>
	<path fill-rule="evenodd" clip-rule="evenodd" fill="#A49658" d="M44.574,41.69c12.763,0.054,23.118,10.288,23.366,23.029
		c0.268,14,2.543,27.66,7.164,40.902c0.199,0.574,0.391,1.158,0.521,1.75c0.294,1.314-0.421,2.555-1.687,2.998
		c-1.251,0.438-2.6-0.096-3.166-1.336c-0.316-0.699-0.494-1.461-0.734-2.193c-2.6-7.885-4.889-15.85-5.84-24.121
		c-0.604-5.246-1.002-10.521-1.38-15.791c-0.19-2.678-0.241-5.352-1.166-7.925c-2.784-7.739-10.425-12.736-18.55-12.085
		c-8.047,0.644-14.949,6.74-16.389,14.725c-0.489,2.706-0.424,5.504-0.706,8.25c-1.081,10.557-4.817,20.174-10.435,29.105
		c-0.434,0.689-0.887,1.365-1.344,2.035c-1.151,1.701-2.643,2.145-4.004,1.209c-1.326-0.908-1.468-2.408-0.336-4.074
		c3.751-5.516,6.669-11.436,8.645-17.807c1.572-5.074,2.47-10.254,2.557-15.586C21.3,52.017,31.899,41.638,44.574,41.69"/>
	<path fill="none" stroke="#F6F6F5" stroke-width="0.856" stroke-miterlimit="10" d="M44.574,41.69
		c12.763,0.054,23.118,10.288,23.366,23.029c0.268,14,2.543,27.66,7.164,40.902c0.199,0.574,0.391,1.158,0.521,1.75
		c0.294,1.314-0.421,2.555-1.687,2.998c-1.251,0.438-2.6-0.096-3.166-1.336c-0.316-0.699-0.494-1.461-0.734-2.193
		c-2.6-7.885-4.889-15.85-5.84-24.121c-0.604-5.246-1.002-10.521-1.38-15.791c-0.19-2.678-0.241-5.352-1.166-7.925
		c-2.784-7.739-10.425-12.736-18.55-12.085c-8.047,0.644-14.949,6.74-16.389,14.725c-0.489,2.706-0.424,5.504-0.706,8.25
		c-1.081,10.557-4.817,20.174-10.435,29.105c-0.434,0.689-0.887,1.365-1.344,2.035c-1.151,1.701-2.643,2.145-4.004,1.209
		c-1.326-0.908-1.468-2.408-0.336-4.074c3.751-5.516,6.669-11.436,8.645-17.807c1.572-5.074,2.47-10.254,2.557-15.586
		C21.3,52.017,31.899,41.638,44.574,41.69z"/>
	<path fill-rule="evenodd" clip-rule="evenodd" fill="#A49658" d="M44.976,36.443C30.158,36.43,17.784,47.365,16.175,61.529
		c-0.361,3.186-0.323,6.422-0.746,9.6c-0.876,6.6-3.158,12.746-6.48,18.508c-0.84,1.459-2.326,1.902-3.627,1.166
		c-1.303-0.74-1.725-2.252-0.896-3.693c2.611-4.549,4.551-9.373,5.453-14.527c0.542-3.109,0.684-6.297,0.886-9.454
		c1.185-18.596,16.751-32.691,35.388-31.816c9.414,0.439,17.314,4.34,23.648,11.342c0.958,1.055,1.111,2.217,0.488,3.236
		c-0.614,1.014-1.572,1.491-2.695,1.197c-0.66-0.176-1.33-0.631-1.801-1.139c-4.754-5.168-10.6-8.244-17.541-9.233
		C47.005,36.538,45.741,36.502,44.976,36.443"/>
	<path fill="none" stroke="#F6F6F5" stroke-width="0.856" stroke-miterlimit="10" d="M44.976,36.443
		C30.158,36.43,17.784,47.365,16.175,61.529c-0.361,3.186-0.323,6.422-0.746,9.6c-0.876,6.6-3.158,12.746-6.48,18.508
		c-0.84,1.459-2.326,1.902-3.627,1.166c-1.303-0.74-1.725-2.252-0.896-3.693c2.611-4.549,4.551-9.373,5.453-14.527
		c0.542-3.109,0.684-6.297,0.886-9.454c1.185-18.596,16.751-32.691,35.388-31.816c9.414,0.439,17.314,4.34,23.648,11.342
		c0.958,1.055,1.111,2.217,0.488,3.236c-0.614,1.014-1.572,1.491-2.695,1.197c-0.66-0.176-1.33-0.631-1.801-1.139
		c-4.754-5.168-10.6-8.244-17.541-9.233C47.005,36.538,45.741,36.502,44.976,36.443z"/>
	<path fill-rule="evenodd" clip-rule="evenodd" fill="#A49658" d="M43.192,10.408c16.272,0.134,28.821,5.703,39.317,16.104
		c1.317,1.305,1.4,2.863,0.269,3.973c-1.105,1.084-2.605,1.035-3.893-0.246c-5.049-5.021-10.754-9.106-17.486-11.494
		c-16.713-5.927-32.213-3.527-46.363,7.197c-1.713,1.296-3.25,2.826-4.844,4.273c-1.4,1.266-2.878,1.371-3.989,0.232
		c-1.116-1.14-0.984-2.646,0.348-3.971c8.254-8.193,18.012-13.525,29.55-15.378C38.899,10.649,41.755,10.543,43.192,10.408"/>
	<path fill="none" stroke="#F6F6F5" stroke-width="0.856" stroke-miterlimit="10" d="M43.192,10.408
		c16.272,0.134,28.821,5.703,39.317,16.104c1.317,1.305,1.4,2.863,0.269,3.973c-1.105,1.084-2.605,1.035-3.893-0.246
		c-5.049-5.021-10.754-9.106-17.486-11.494c-16.713-5.927-32.213-3.527-46.363,7.197c-1.713,1.296-3.25,2.826-4.844,4.273
		c-1.4,1.266-2.878,1.371-3.989,0.232c-1.116-1.14-0.984-2.646,0.348-3.971c8.254-8.193,18.012-13.525,29.55-15.378
		C38.899,10.649,41.755,10.543,43.192,10.408z"/>
	<path fill-rule="evenodd" clip-rule="evenodd" fill="#A49658" d="M44.451,20.816c21.126,0.09,39.278,14.884,43.411,35.49
		c0.531,2.655,0.658,5.4,0.846,8.112c0.143,2.096-0.861,3.258-2.551,3.256c-1.629-0.004-2.535-1.129-2.607-3.145
		c-0.465-13.281-6.043-23.907-16.908-31.533c-9.305-6.527-19.688-8.312-30.793-5.987c-0.316,0.066-0.633,0.146-0.951,0.211
		c-1.538,0.319-2.842-0.425-3.235-1.842c-0.384-1.375,0.4-2.862,1.934-3.147c3.587-0.659,7.2-1.161,10.804-1.729
		C44.418,20.606,44.433,20.711,44.451,20.816"/>
	<path fill="none" stroke="#F6F6F5" stroke-width="0.856" stroke-miterlimit="10" d="M44.451,20.816
		c21.126,0.09,39.278,14.884,43.411,35.49c0.531,2.655,0.658,5.4,0.846,8.112c0.143,2.096-0.861,3.258-2.551,3.256
		c-1.629-0.004-2.535-1.129-2.607-3.145c-0.465-13.281-6.043-23.907-16.908-31.533c-9.305-6.527-19.688-8.312-30.793-5.987
		c-0.316,0.066-0.633,0.146-0.951,0.211c-1.538,0.319-2.842-0.425-3.235-1.842c-0.384-1.375,0.4-2.862,1.934-3.147
		c3.587-0.659,7.2-1.161,10.804-1.729C44.418,20.606,44.433,20.711,44.451,20.816z"/>
	<path fill-rule="evenodd" clip-rule="evenodd" fill="#A49658" d="M0.28,63.656C1.403,47.884,8.327,35.54,21.843,27.083
		c1.576-0.987,3.125-0.705,3.938,0.619c0.83,1.354,0.381,2.822-1.203,3.805C14.411,37.822,8.228,46.862,6.093,58.633
		c-0.355,1.95-0.489,3.947-0.622,5.933c-0.134,2-1.025,3.123-2.657,3.105C1.13,67.658,0.229,66.49,0.28,64.389
		C0.284,64.145,0.28,63.898,0.28,63.656"/>
	<path fill="none" stroke="#F6F6F5" stroke-width="0.856" stroke-miterlimit="10" d="M0.28,63.656
		C1.403,47.884,8.327,35.54,21.843,27.083c1.576-0.987,3.125-0.705,3.938,0.619c0.83,1.354,0.381,2.822-1.203,3.805
		C14.411,37.822,8.228,46.862,6.093,58.633c-0.355,1.95-0.489,3.947-0.622,5.933c-0.134,2-1.025,3.123-2.657,3.105
		C1.13,67.658,0.229,66.49,0.28,64.389C0.284,64.145,0.28,63.898,0.28,63.656z"/>
	<path fill-rule="evenodd" clip-rule="evenodd" fill="#A49658" d="M80.483,98.453c-1.055-0.041-1.876-0.666-2.278-1.826
		c-2.849-8.178-4.663-16.557-4.915-25.252c-0.115-3.934-0.393-7.865-0.739-11.789c-0.118-1.354-0.663-2.673-1.024-4.004
		c-0.412-1.519,0.252-2.896,1.623-3.334c1.4-0.452,2.768,0.221,3.301,1.714c1.286,3.595,1.863,7.316,1.91,11.124
		c0.071,5.777,0.16,11.568,1.338,17.236c0.84,4.045,2.139,7.99,3.232,11.98c0.098,0.354,0.234,0.695,0.304,1.055
		C83.563,97.004,82.338,98.473,80.483,98.453"/>
	<path fill="none" stroke="#F6F6F5" stroke-width="0.856" stroke-miterlimit="10" d="M80.483,98.453
		c-1.055-0.041-1.876-0.666-2.278-1.826c-2.849-8.178-4.663-16.557-4.915-25.252c-0.115-3.934-0.393-7.865-0.739-11.789
		c-0.118-1.354-0.663-2.673-1.024-4.004c-0.412-1.519,0.252-2.896,1.623-3.334c1.4-0.452,2.768,0.221,3.301,1.714
		c1.286,3.595,1.863,7.316,1.91,11.124c0.071,5.777,0.16,11.568,1.338,17.236c0.84,4.045,2.139,7.99,3.232,11.98
		c0.098,0.354,0.234,0.695,0.304,1.055C83.563,97.004,82.338,98.473,80.483,98.453z"/>
	<path fill-rule="evenodd" clip-rule="evenodd" fill="#A49658" d="M43.81,86.207c-0.041,0.184-0.102,0.584-0.219,0.969
		c-3.483,11.584-9.086,22.059-16.58,31.535c-1.175,1.488-2.663,1.773-3.914,0.799c-1.254-0.977-1.355-2.512-0.189-3.99
		c7.108-8.996,12.408-18.938,15.742-29.922c0.493-1.625,1.611-2.354,3.087-2.111C42.935,83.684,43.792,84.719,43.81,86.207"/>
	<path fill="none" stroke="#F6F6F5" stroke-width="0.856" stroke-miterlimit="10" d="M43.81,86.207
		c-0.041,0.184-0.102,0.584-0.219,0.969c-3.483,11.584-9.086,22.059-16.58,31.535c-1.175,1.488-2.663,1.773-3.914,0.799
		c-1.254-0.977-1.355-2.512-0.189-3.99c7.108-8.996,12.408-18.938,15.742-29.922c0.493-1.625,1.611-2.354,3.087-2.111
		C42.935,83.684,43.792,84.719,43.81,86.207z"/>
	<path fill-rule="evenodd" clip-rule="evenodd" fill="#A49658" d="M47.163,67.926c-0.309,2.58-0.588,5.162-0.938,7.736
		c-0.215,1.592-1.404,2.574-2.807,2.443c-1.479-0.139-2.457-1.373-2.335-3.01c0.253-3.359,0.524-6.717,0.81-10.072
		c0.123-1.451,1.193-2.495,2.51-2.51c1.39-0.018,2.551,1.006,2.678,2.477c0.084,0.967,0.018,1.949,0.018,2.922
		C47.118,67.916,47.141,67.92,47.163,67.926"/>
	<path fill="none" stroke="#F6F6F5" stroke-width="0.856" stroke-miterlimit="10" d="M47.163,67.926
		c-0.309,2.58-0.588,5.162-0.938,7.736c-0.215,1.592-1.404,2.574-2.807,2.443c-1.479-0.139-2.457-1.373-2.335-3.01
		c0.253-3.359,0.524-6.717,0.81-10.072c0.123-1.451,1.193-2.495,2.51-2.51c1.39-0.018,2.551,1.006,2.678,2.477
		c0.084,0.967,0.018,1.949,0.018,2.922C47.118,67.916,47.141,67.92,47.163,67.926z"/>
</g>
</svg>
