<?xml version="1.0" encoding="utf-8"?>
<!-- Generator: Adobe Illustrator 16.0.0, SVG Export Plug-In . SVG Version: 6.00 Build 0)  -->
<!DOCTYPE svg PUBLIC "-//W3C//DTD SVG 1.1//EN" "http://www.w3.org/Graphics/SVG/1.1/DTD/svg11.dtd">
<svg version="1.1" id="Capa_1" xmlns="http://www.w3.org/2000/svg" xmlns:xlink="http://www.w3.org/1999/xlink" x="0px" y="0px"
	 width="125px" height="125px" viewBox="0 0 125 125" enable-background="new 0 0 125 125" xml:space="preserve">
<g>
	<rect x="57.198" y="46.962" fill="#A49658" width="7.169" height="10.247"/>
	<path fill-rule="evenodd" clip-rule="evenodd" fill="#A49658" d="M0.066,95.179c0.605-2.816,1.65-5.404,3.65-7.566
		c5.238-5.655,14.435-5.706,19.688-0.072c5.394,5.78,4.857,14.833-1.243,19.683c-1.185,0.944-2.647,1.539-3.965,2.32
		c-0.345,0.206-0.875,0.518-0.887,0.796c-0.069,2.383-0.039,4.769-0.039,7.216h12.775v-1.464c0-21.75,0.006-43.494-0.018-65.241
		c-0.002-0.92,0.256-1.578,0.896-2.247c8.523-8.892,17.022-17.8,25.509-26.728c0.576-0.607,1.145-0.875,1.995-0.87
		c6.096,0.037,12.193,0.032,18.291-0.003c0.502-0.004,1.153-0.201,1.484-0.547C84.63,13.78,91.022,7.068,97.418,0.36
		c0.078-0.086,0.133-0.195,0.201-0.296h20.486c0.021,0.566,0.062,1.134,0.062,1.702c0.004,38.044,0.004,76.091,0.004,114.13v1.719
		h6.763v7.321H0.066v-7.321h9.875c0-2.298-0.046-4.408,0.021-6.519c0.028-0.91-0.245-1.348-1.139-1.661
		c-2.769-0.974-5.064-2.696-6.478-5.255c-0.999-1.811-1.537-3.878-2.279-5.831V95.179z M110.759,117.567V7.38
		c-2.976,0-5.854,0.033-8.735-0.019c-0.847-0.017-1.421,0.241-2,0.849c-7.165,7.541-14.365,15.048-21.511,22.605
		c-0.436,0.459-0.699,1.271-0.699,1.922c-0.036,27.83-0.032,55.66-0.029,83.493c0.001,0.433,0.039,0.861,0.061,1.337H110.759z
		 M37.363,117.53H70.36V28.342c-2.991,0-5.877,0.033-8.759-0.019c-0.841-0.015-1.422,0.229-2.005,0.841
		c-7.081,7.457-14.18,14.894-21.304,22.312c-0.668,0.694-0.952,1.371-0.95,2.345c0.025,20.77,0.021,41.534,0.021,62.303V117.53z
		 M13.585,103.029c3.418,0.01,6.218-2.765,6.226-6.168c0.007-3.388-2.807-6.217-6.196-6.233c-3.375-0.016-6.213,2.814-6.224,6.2
		C7.38,100.231,10.169,103.023,13.585,103.029"/>
	<path fill="none" stroke="#F6F6F5" stroke-width="1.9184" stroke-miterlimit="10" d="M0.066,95.179
		c0.605-2.816,1.65-5.404,3.65-7.566c5.238-5.655,14.435-5.706,19.688-0.072c5.394,5.78,4.857,14.833-1.243,19.683
		c-1.185,0.944-2.647,1.539-3.965,2.32c-0.345,0.206-0.875,0.518-0.887,0.796c-0.069,2.383-0.039,4.769-0.039,7.216h12.775v-1.464
		c0-21.75,0.006-43.494-0.018-65.241c-0.002-0.92,0.256-1.578,0.896-2.247c8.523-8.892,17.022-17.8,25.509-26.728
		c0.576-0.607,1.145-0.875,1.995-0.87c6.096,0.037,12.193,0.032,18.291-0.003c0.502-0.004,1.153-0.201,1.484-0.547
		C84.63,13.78,91.022,7.068,97.418,0.36c0.078-0.086,0.133-0.195,0.201-0.296h20.486c0.021,0.566,0.062,1.134,0.062,1.702
		c0.004,38.044,0.004,76.091,0.004,114.13v1.719h6.763v7.321H0.066v-7.321h9.875c0-2.298-0.046-4.408,0.021-6.519
		c0.028-0.91-0.245-1.348-1.139-1.661c-2.769-0.974-5.064-2.696-6.478-5.255c-0.999-1.811-1.537-3.878-2.279-5.831V95.179z
		 M110.759,117.567V7.38c-2.976,0-5.854,0.033-8.735-0.019c-0.847-0.017-1.421,0.241-2,0.849
		c-7.165,7.541-14.365,15.048-21.511,22.605c-0.436,0.459-0.699,1.271-0.699,1.922c-0.036,27.83-0.032,55.66-0.029,83.493
		c0.001,0.433,0.039,0.861,0.061,1.337H110.759z M37.363,117.53H70.36V28.342c-2.991,0-5.877,0.033-8.759-0.019
		c-0.841-0.015-1.422,0.229-2.005,0.841c-7.081,7.457-14.18,14.894-21.304,22.312c-0.668,0.694-0.952,1.371-0.95,2.345
		c0.025,20.77,0.021,41.534,0.021,62.303V117.53z M13.585,103.029c3.418,0.01,6.218-2.765,6.226-6.168
		c0.007-3.388-2.807-6.217-6.196-6.233c-3.375-0.016-6.213,2.814-6.224,6.2C7.38,100.231,10.169,103.023,13.585,103.029"/>
	<rect x="97.66" y="23.541" fill-rule="evenodd" clip-rule="evenodd" fill="#A49658" width="7.157" height="10.291"/>
	
		<rect x="97.66" y="23.541" fill="none" stroke="#F6F6F5" stroke-width="1.9184" stroke-miterlimit="10" width="7.157" height="10.291"/>
	<rect x="83.784" y="46.977" fill-rule="evenodd" clip-rule="evenodd" fill="#A49658" width="7.201" height="10.26"/>
	
		<rect x="83.784" y="46.977" fill="none" stroke="#F6F6F5" stroke-width="1.9184" stroke-miterlimit="10" width="7.201" height="10.26"/>
	<rect x="97.674" y="46.956" fill-rule="evenodd" clip-rule="evenodd" fill="#A49658" width="7.173" height="10.246"/>
	
		<rect x="97.674" y="46.956" fill="none" stroke="#F6F6F5" stroke-width="1.9184" stroke-miterlimit="10" width="7.173" height="10.246"/>
	<rect x="83.811" y="70.369" fill-rule="evenodd" clip-rule="evenodd" fill="#A49658" width="7.153" height="10.289"/>
	
		<rect x="83.811" y="70.369" fill="none" stroke="#F6F6F5" stroke-width="1.9184" stroke-miterlimit="10" width="7.153" height="10.289"/>
	<rect x="97.672" y="70.375" fill-rule="evenodd" clip-rule="evenodd" fill="#A49658" width="7.177" height="10.242"/>
	
		<rect x="97.672" y="70.375" fill="none" stroke="#F6F6F5" stroke-width="1.9184" stroke-miterlimit="10" width="7.177" height="10.242"/>
	<rect x="83.786" y="93.791" fill-rule="evenodd" clip-rule="evenodd" fill="#A49658" width="7.168" height="10.282"/>
	
		<rect x="83.786" y="93.791" fill="none" stroke="#F6F6F5" stroke-width="1.9184" stroke-miterlimit="10" width="7.168" height="10.282"/>
	<rect x="97.66" y="93.778" fill-rule="evenodd" clip-rule="evenodd" fill="#A49658" width="7.157" height="10.292"/>
	
		<rect x="97.66" y="93.778" fill="none" stroke="#F6F6F5" stroke-width="1.9184" stroke-miterlimit="10" width="7.157" height="10.292"/>
	
		<rect x="57.198" y="46.962" fill-rule="evenodd" clip-rule="evenodd" fill="none" stroke="#FFFFFF" stroke-width="1.9184" stroke-miterlimit="10" width="7.169" height="10.247"/>
	
		<rect x="57.198" y="46.962" fill="none" stroke="#F6F6F5" stroke-width="1.9184" stroke-miterlimit="10" width="7.169" height="10.247"/>
	<rect x="57.217" y="70.367" fill-rule="evenodd" clip-rule="evenodd" fill="#A49658" width="7.156" height="10.293"/>
	
		<rect x="57.217" y="70.367" fill="none" stroke="#F6F6F5" stroke-width="1.9184" stroke-miterlimit="10" width="7.156" height="10.293"/>
	<rect x="57.235" y="93.795" fill-rule="evenodd" clip-rule="evenodd" fill="#A49658" width="7.163" height="10.272"/>
	
		<rect x="57.235" y="93.795" fill="none" stroke="#F6F6F5" stroke-width="1.9184" stroke-miterlimit="10" width="7.163" height="10.272"/>
	<rect x="43.359" y="70.385" fill-rule="evenodd" clip-rule="evenodd" fill="#A49658" width="7.194" height="10.266"/>
	
		<rect x="43.359" y="70.385" fill="none" stroke="#F6F6F5" stroke-width="1.9184" stroke-miterlimit="10" width="7.194" height="10.266"/>
	<rect x="43.387" y="93.781" fill-rule="evenodd" clip-rule="evenodd" fill="#A49658" width="7.142" height="10.282"/>
	
		<rect x="43.387" y="93.781" fill="none" stroke="#F6F6F5" stroke-width="1.9184" stroke-miterlimit="10" width="7.142" height="10.282"/>
</g>
</svg>
