<?xml version="1.0" encoding="utf-8"?>
<!-- Generator: Adobe Illustrator 16.0.0, SVG Export Plug-In . SVG Version: 6.00 Build 0)  -->
<!DOCTYPE svg PUBLIC "-//W3C//DTD SVG 1.1//EN" "http://www.w3.org/Graphics/SVG/1.1/DTD/svg11.dtd">
<svg version="1.1" id="Capa_1" xmlns="http://www.w3.org/2000/svg" xmlns:xlink="http://www.w3.org/1999/xlink" x="0px" y="0px"
	 width="59px" height="125px" viewBox="0 0 59 125" enable-background="new 0 0 59 125" xml:space="preserve">
<g>
	<path fill-rule="evenodd" clip-rule="evenodd" fill="#A49658" d="M57.401,71.982c0,8.761,0.12,17.523-0.028,26.283
		c-0.23,13.367-11.16,25.048-24.652,26.569c-13.893,1.566-27.392-7.763-30.414-21.149c-0.527-2.338-0.731-4.792-0.741-7.194
		C1.494,79.287,1.505,62.082,1.508,44.876c0-4.504,0.844-5.355,5.335-5.36c15.165-0.015,30.329-0.009,45.489,0.01
		c4.239,0.004,5.147,0.973,5.147,5.224c-0.006,9.077-0.002,18.157-0.002,27.233H57.401z M8.612,46.4
		c-0.196,0.443-0.353,0.63-0.353,0.82C8.231,64.098,7.661,81.003,8.37,97.853c0.607,14.445,14.09,23.432,27.417,19.382
		c9.14-2.78,14.988-10.982,15.065-21.393c0.101-13.504,0.084-27.012,0.116-40.521c0.006-2.915,0-5.833,0-8.921H8.612z"/>
	<path fill="none" stroke="#F6F6F5" stroke-width="1.9314" stroke-miterlimit="10" d="M57.401,71.982
		c0,8.761,0.12,17.523-0.028,26.283c-0.23,13.367-11.16,25.048-24.652,26.569c-13.893,1.566-27.392-7.763-30.414-21.149
		c-0.527-2.338-0.731-4.792-0.741-7.194C1.494,79.287,1.505,62.082,1.508,44.876c0-4.504,0.844-5.355,5.335-5.36
		c15.165-0.015,30.329-0.009,45.489,0.01c4.239,0.004,5.147,0.973,5.147,5.224c-0.006,9.077-0.002,18.157-0.002,27.233H57.401z
		 M8.612,46.4c-0.196,0.443-0.353,0.63-0.353,0.82C8.231,64.098,7.661,81.003,8.37,97.853c0.607,14.445,14.09,23.432,27.417,19.382
		c9.14-2.78,14.988-10.982,15.065-21.393c0.101-13.504,0.084-27.012,0.116-40.521c0.006-2.915,0-5.833,0-8.921H8.612z"/>
	<path fill-rule="evenodd" clip-rule="evenodd" fill="#A49658" d="M29.827-0.007C39.959,0.087,48.988,3.729,56.764,10.63
		c1.844,1.638,3.051,3.505,1.137,5.678c-1.975,2.241-3.808,1.022-5.66-0.607C38.579,3.688,20.408,3.706,6.698,15.747
		c-1.879,1.649-3.744,2.765-5.659,0.509c-1.855-2.188-0.585-4.058,1.236-5.671C10.055,3.689,19.088,0.063,29.827-0.007"/>
	<path fill="none" stroke="#F6F6F5" stroke-width="1.9314" stroke-miterlimit="10" d="M29.827-0.007
		C39.959,0.087,48.988,3.729,56.764,10.63c1.844,1.638,3.051,3.505,1.137,5.678c-1.975,2.241-3.808,1.022-5.66-0.607
		C38.579,3.688,20.408,3.706,6.698,15.747c-1.879,1.649-3.744,2.765-5.659,0.509c-1.855-2.188-0.585-4.058,1.236-5.671
		C10.055,3.689,19.088,0.063,29.827-0.007"/>
	<path fill-rule="evenodd" clip-rule="evenodd" fill="#A49658" d="M29.727,10.761c7.211,0.246,13.643,2.682,19.082,7.638
		c1.795,1.634,2.572,3.586,0.744,5.468c-1.674,1.72-3.508,1.118-5.273-0.426c-8.978-7.846-20.584-7.867-29.518-0.051
		c-1.871,1.637-3.781,2.248-5.495,0.301c-1.588-1.803-0.851-3.693,0.853-5.244C15.65,13.413,22.167,10.932,29.727,10.761"/>
	<path fill="none" stroke="#F6F6F5" stroke-width="1.9314" stroke-miterlimit="10" d="M29.727,10.761
		c7.211,0.246,13.643,2.682,19.082,7.638c1.795,1.634,2.572,3.586,0.744,5.468c-1.674,1.72-3.508,1.118-5.273-0.426
		c-8.978-7.846-20.584-7.867-29.518-0.051c-1.871,1.637-3.781,2.248-5.495,0.301c-1.588-1.803-0.851-3.693,0.853-5.244
		C15.65,13.413,22.167,10.932,29.727,10.761"/>
	<path fill-rule="evenodd" clip-rule="evenodd" fill="#A49658" d="M29.479,27.884c-2.418,1.216-4.676,2.062-6.595,3.391
		c-1.973,1.371-3.608,1.664-5.214-0.247c-1.602-1.902-0.7-3.521,0.799-4.953c5.846-5.574,16.385-5.527,22.126,0.088
		c1.506,1.474,2.277,3.125,0.652,4.963c-1.521,1.718-3.111,1.536-5.003,0.276C34.213,30.048,31.902,29.119,29.479,27.884"/>
	<path fill="none" stroke="#F6F6F5" stroke-width="1.9314" stroke-miterlimit="10" d="M29.479,27.884
		c-2.418,1.216-4.676,2.062-6.595,3.391c-1.973,1.371-3.608,1.664-5.214-0.247c-1.602-1.902-0.7-3.521,0.799-4.953
		c5.846-5.574,16.385-5.527,22.126,0.088c1.506,1.474,2.277,3.125,0.652,4.963c-1.521,1.718-3.111,1.536-5.003,0.276
		C34.213,30.048,31.902,29.119,29.479,27.884"/>
	<path fill-rule="evenodd" clip-rule="evenodd" fill="#A49658" d="M42.164,65.871c0.048,6.884-5.697,12.701-12.581,12.744
		c-6.9,0.04-12.721-5.689-12.763-12.56c-0.042-7.001,5.618-12.606,12.896-12.781C36.137,53.121,42.117,59.172,42.164,65.871
		 M35.232,65.999c0.023-3.356-2.354-5.771-5.695-5.786c-3.358-0.014-5.776,2.36-5.787,5.698c-0.015,3.373,2.344,5.771,5.699,5.787
		C32.822,71.717,35.207,69.364,35.232,65.999"/>
	<path fill="none" stroke="#F6F6F5" stroke-width="1.9314" stroke-miterlimit="10" d="M42.164,65.871
		c0.048,6.884-5.697,12.701-12.581,12.744c-6.9,0.04-12.721-5.689-12.763-12.56c-0.042-7.001,5.618-12.606,12.896-12.781
		C36.137,53.121,42.117,59.172,42.164,65.871 M35.232,65.999c0.023-3.356-2.354-5.771-5.695-5.786
		c-3.358-0.014-5.776,2.36-5.787,5.698c-0.015,3.373,2.344,5.771,5.699,5.787C32.822,71.717,35.207,69.364,35.232,65.999"/>
	<path fill-rule="evenodd" clip-rule="evenodd" fill="#A49658" d="M37.584,92.553c-4.229,0-5.975-0.984-5.971-3.364
		c0.002-2.398,1.814-3.45,5.986-3.455c1.045,0,2.344-0.34,3.085,0.151c1.257,0.825,2.862,2.084,3.05,3.347
		c0.273,1.84-1.141,3.271-3.318,3.313C39.473,92.567,38.527,92.547,37.584,92.553"/>
	<path fill="none" stroke="#F6F6F5" stroke-width="1.9314" stroke-miterlimit="10" d="M37.584,92.553
		c-4.229,0-5.975-0.984-5.971-3.364c0.002-2.398,1.814-3.45,5.986-3.455c1.045,0,2.344-0.34,3.085,0.151
		c1.257,0.825,2.862,2.084,3.05,3.347c0.273,1.84-1.141,3.271-3.318,3.313C39.473,92.567,38.527,92.547,37.584,92.553"/>
	<path fill-rule="evenodd" clip-rule="evenodd" fill="#A49658" d="M20.51,92.553c-1.957,0.078-4.871,0.444-5.369-3.241
		c-0.331-2.444,1.77-3.581,6.133-3.581c4.174,0,6.004,1.008,6.103,3.356C27.481,91.527,25.65,92.553,20.51,92.553"/>
	<path fill="none" stroke="#F6F6F5" stroke-width="1.9314" stroke-miterlimit="10" d="M20.51,92.553
		c-1.957,0.078-4.871,0.444-5.369-3.241c-0.331-2.444,1.77-3.581,6.133-3.581c4.174,0,6.004,1.008,6.103,3.356
		C27.481,91.527,25.65,92.553,20.51,92.553"/>
	<path fill-rule="evenodd" clip-rule="evenodd" fill="#A49658" d="M21.376,96.967c4.284-0.005,6.036,0.968,5.991,3.313
		c-0.04,2.331-1.863,3.32-6.108,3.314c-0.945-0.001-1.896,0.015-2.836-0.061c-2.146-0.171-3.579-1.589-3.159-3.481
		c0.268-1.21,2.016-2.25,3.313-3.009C19.285,96.635,20.43,96.974,21.376,96.967"/>
	<path fill="none" stroke="#F6F6F5" stroke-width="1.9314" stroke-miterlimit="10" d="M21.376,96.967
		c4.284-0.005,6.036,0.968,5.991,3.313c-0.04,2.331-1.863,3.32-6.108,3.314c-0.945-0.001-1.896,0.015-2.836-0.061
		c-2.146-0.171-3.579-1.589-3.159-3.481c0.268-1.21,2.016-2.25,3.313-3.009C19.285,96.635,20.43,96.974,21.376,96.967"/>
	<path fill-rule="evenodd" clip-rule="evenodd" fill="#A49658" d="M37.87,96.974c4.235-0.021,6.06,0.987,6.019,3.298
		c-0.043,2.343-1.875,3.343-6.109,3.327c-0.947-0.005-1.897,0.016-2.841-0.065c-2.124-0.183-3.579-1.56-3.146-3.479
		c0.275-1.209,1.996-2.251,3.279-3.006C35.776,96.632,36.922,96.974,37.87,96.974"/>
	<path fill="none" stroke="#F6F6F5" stroke-width="1.9314" stroke-miterlimit="10" d="M37.87,96.974
		c4.235-0.021,6.06,0.987,6.019,3.298c-0.043,2.343-1.875,3.343-6.109,3.327c-0.947-0.005-1.897,0.016-2.841-0.065
		c-2.124-0.183-3.579-1.56-3.146-3.479c0.275-1.209,1.996-2.251,3.279-3.006C35.776,96.632,36.922,96.974,37.87,96.974"/>
</g>
</svg>
