<?xml version="1.0" encoding="utf-8"?>
<!-- Generator: Adobe Illustrator 16.0.0, SVG Export Plug-In . SVG Version: 6.00 Build 0)  -->
<!DOCTYPE svg PUBLIC "-//W3C//DTD SVG 1.1//EN" "http://www.w3.org/Graphics/SVG/1.1/DTD/svg11.dtd">
<svg version="1.1" id="Capa_1" xmlns="http://www.w3.org/2000/svg" xmlns:xlink="http://www.w3.org/1999/xlink" x="0px" y="0px"
	 width="60px" height="125px" viewBox="0 0 60 125" enable-background="new 0 0 60 125" xml:space="preserve">
<g>
	<path fill-rule="evenodd" clip-rule="evenodd" fill="#A49658" d="M29.93,0.174C12.171,0.347-1.792,15.896,0.208,33.323
		c0.543,4.741,2.055,9.083,4.558,13.11c7.675,12.344,15.348,24.69,23.031,37.028c1.711,2.742,3.594,2.713,5.285-0.094
		c7.562-12.561,15.224-25.061,22.617-37.714C66.22,27.645,56.48,5.537,36.131,0.978C34.107,0.522,31.998,0.433,29.93,0.174
		 M30.412,78.09c-3.56-5.697-6.925-11.051-10.252-16.422C16.031,55.003,11.598,48.499,7.907,41.6
		C3.208,32.824,3.88,23.932,9.709,15.846c5.847-8.114,14.03-11.699,24.016-10.211C51.357,8.262,60.523,27.77,51.434,43.047
		c-4.137,6.955-8.328,13.878-12.492,20.816C36.152,68.506,33.369,73.158,30.412,78.09"/>
	<path fill-rule="evenodd" clip-rule="evenodd" fill="#A49658" d="M29.762,12.344c-8.553,0.226-14.909,6.859-14.672,15.311
		c0.234,8.349,7.099,14.741,15.553,14.481c8.053-0.248,14.517-7.086,14.323-15.15C44.764,18.63,38.008,12.122,29.762,12.344
		 M29.792,17.302c5.478-0.164,10.02,4.111,10.168,9.566c0.146,5.37-4.144,10.146-9.26,10.316c-5.869,0.196-10.472-4.01-10.628-9.709
		C19.918,21.86,24.108,17.476,29.792,17.302"/>
	<polygon fill="none" stroke="#A49658" stroke-width="4.0008" stroke-miterlimit="10" points="25.923,103.359 30.9,92.775 
		36.271,103.166 47.875,104.633 39.654,112.949 41.848,124.436 31.395,119.189 21.147,124.824 22.906,113.264 14.382,105.258 	"/>
</g>
</svg>
