<svg xmlns="http://www.w3.org/2000/svg" width="89" height="125" viewBox="0 0 89 125">
<style>
  .a{
    fill:#A49658;
  }
</style>
    <path d="M27 40.9c1.9-3.4 3.7-6.2 5.1-9.1 0.5-0.9 0.6-2.9 0-3.3 -1.5-1.1-2.4 0.2-3.1 1.5 -2.2 3.8-4.3 7.7-6.6 11.5 -0.9 1.6-0.9 2.8 0.2 4.2 7.5 9.8 14.9 19.7 22.4 29.5 1.5 2 2.6 2.1 4.1 0.1 7.5-9.9 15-19.8 22.5-29.7 1-1.4 1-2.5 0.2-4C64.3 28.7 56.9 15.8 49.5 2.9c-1.8-3.2-3-3.2-4.7-0.1 -3.6 6.1-7.1 12.3-10.6 18.4 -0.2 0.3-0.5 0.7-0.5 1 0.1 1 0.3 1.9 0.5 2.9 0.9-0.4 2.2-0.5 2.6-1.2 2.1-3.3 4-6.8 6-10.2 0.6-1.1 1.3-2.1 2.1-3.1 0.2 6.3 1.4 12.7-3.1 18.2 -1.7 2.1-3 4.6-4.1 7.2 -1.2 2.7-3 4-5.9 4.1C30.4 40 29.1 40.5 27 40.9zM47.1 52.4c-2.6-3.8-5.1-7.3-7.5-10.9 -0.3-0.4-0.3-1.3-0.1-1.7 2.4-4.3 4.9-8.6 7.6-13.2 2.6 4.6 5.1 8.8 7.5 13.2 0.2 0.4 0.2 1.3-0.1 1.7C52.2 45.1 49.7 48.6 47.1 52.4zM67.5 44.8c-6.2 8.2-12.1 16-18.6 24.6 0-4.7 0-8.6 0-12.4 0-0.7 0.4-1.4 0.8-2 2.4-3.6 4.8-7.2 7.4-10.7 0.4-0.6 1.5-1.2 2.2-1.1C61.9 43.5 64.5 44.2 67.5 44.8zM26.6 44.8c3-0.6 5.5-1.3 8.1-1.6 0.8-0.1 2 0.8 2.5 1.5 2.4 3.3 4.6 6.6 6.9 10 0.4 0.6 0.9 1.3 0.9 1.9 0.1 3.9 0 7.8 0 11.7 -0.2 0.1-0.4 0.1-0.6 0.2C38.6 60.7 32.7 52.9 26.6 44.8zM67.1 40.9c-1.9-0.4-3.3-0.9-4.7-0.9 -3.1-0.1-4.7-1.7-6-4.3 -1.2-2.6-2.5-5.2-4.3-7.4 -4.4-5.5-3.1-11.7-2.7-17.9C55.3 20.3 61.1 30.4 67.1 40.9z" class="a"/>
    <path d="M27.6 104.3c0 5 0 9.8 0 14.7 0 5.5 0 5.5 5.6 5.5 10 0 19.9-0.1 29.9 0 2.6 0 3.6-0.8 3.6-3.5 -0.1-5.5 0-11 0-16.7 0.9-0.1 1.6-0.2 2.3-0.3 5.1-0.5 8.8-4.8 8.9-10 0-5.2-3.6-9.8-8.7-10 -8.8-0.4-17.7-0.2-26.6-0.3 -1.7 0-3.4-0.2-5 0.1 -0.9 0.2-1.7 1.2-2.5 1.8 0.9 0.6 1.7 1.6 2.6 1.6 9.6 0.1 19.2 0 28.8 0.1 1.7 0 3.7 0.6 5.1 1.5 2.6 1.6 3.2 4.9 2 7.6 -1 2.4-3.9 4.2-6.4 4 -3-0.3-5.8-2.5-5.9-5.6 -0.1-3.2-1.8-3.5-4.3-3.4 -6.9 0.1-13.8 0.1-20.8 0 -2.2 0-3.4 0.5-3.5 3.1 -0.1 3.4-3.2 6-6.4 6 -3.4 0-6.1-2.7-6.4-6.1 -0.3-3.4 1.9-6.3 5.4-7 1.2-0.2 2.5 0.1 3.6-0.2 0.9-0.2 1.5-1.1 2.3-1.7 -0.8-0.6-1.5-1.6-2.3-1.7 -6.5-0.8-12 3.1-12.6 8.7C15.6 99.1 19.7 103.6 27.6 104.3zM42.9 120.8c0-1-0.1-1.9-0.1-2.8 0-4.2 0.1-8.5-0.1-12.7 0-1-1.2-1.9-1.8-2.9 -0.6 0.9-1.6 1.8-1.8 2.8 -0.3 1.4-0.1 2.9-0.1 4.4 0 3.7 0 7.5 0 11.2 -2.8 0-5.2 0-7.8 0 0-4.9 0.1-9.7 0-14.5 -0.1-2.1 0.4-3.5 2.1-4.9 1.3-1.1 1.9-3 2.9-4.5 0.4-0.6 0.9-1.6 1.4-1.6 6.6-0.1 13.2-0.1 18.8-0.1 2.1 2.8 3.7 5 5.3 7.1 0.4 0.5 1 1 1 1.5 0.1 5.6 0 11.2 0 16.9 -2.7 0-5.1 0-7.8 0 0-1 0-1.8 0-2.6 0-4.5 0.1-9-0.1-13.6 0-0.8-1.1-1.5-1.8-2.2 -0.6 0.7-1.4 1.3-1.7 2.1 -0.3 0.9-0.1 2-0.1 3 0 4.4 0 8.8 0 13.3C48.4 120.8 45.8 120.8 42.9 120.8z" class="a"/>
    <path d="M78.6 14.2c1.2 1.3 1.9 2.1 2.6 2.8 0.7-0.8 1.9-1.6 1.9-2.4 0-0.8-1-1.7-1.6-2.6C80.6 12.6 79.9 13.2 78.6 14.2z" class="a"/>
    <path d="M10.5 60.5c-1.3-1-2.1-1.7-2.9-2.3 -0.5 0.9-1.4 1.9-1.4 2.8 0 0.7 1.1 1.5 1.8 2.2C8.6 62.5 9.3 61.8 10.5 60.5z" class="a"/>
    <path d="M10.5 70.8c-1.2-1.2-2-2-2.7-2.7 -0.6 0.9-1.7 1.7-1.8 2.6 -0.1 0.7 1 1.6 1.6 2.4C8.4 72.4 9.2 71.8 10.5 70.8z" class="a"/>
    <path d="M2.8 63c-1.1 1.2-1.8 2-2.5 2.8 0.9 0.6 1.8 1.5 2.7 1.6 0.7 0 1.5-1 2.3-1.6C4.6 65 3.9 64.2 2.8 63z" class="a"/>
    <path d="M12.5 63.1c-1 1.2-1.6 2-2.3 2.8 0.9 0.5 1.8 1.5 2.6 1.5 0.8 0 1.6-1.1 2.4-1.7C14.4 64.9 13.7 64.2 12.5 63.1z" class="a"/>
    <path d="M83.9 24.4c-1.2-1.2-1.9-2-2.7-2.7 -0.6 0.9-1.6 1.7-1.7 2.7 -0.1 0.7 1 1.6 1.5 2.4C81.8 26.1 82.6 25.4 83.9 24.4z" class="a"/>
    <path d="M86.3 22.1c1.1-1.3 1.7-2.1 2.4-2.8 -0.9-0.6-1.8-1.5-2.8-1.5 -0.7 0-1.5 1.1-2.2 1.7C84.4 20.1 85.1 20.9 86.3 22.1z" class="a"/>
    <path d="M76.5 22c1.1-1.3 1.7-2.1 2.3-2.8 -0.9-0.5-1.8-1.4-2.7-1.4 -0.7 0-1.5 1-2.2 1.6C74.6 20 75.3 20.8 76.5 22z" class="a"/>
</svg>