<svg xmlns="http://www.w3.org/2000/svg" width="125" height="125" viewBox="0 0 125 125">
<style>
  .a{
    fill:#A49658;
  }
  .b{
    fill:none;
    stroke:#A49658;
  }
</style>
    <path d="M110.3 74.1c2.8-1.6 5.9-2 9-0.8 1.9 0.7 3.5 1.9 4.7 3.5 1.2 1.7 1.1 2.3-0.6 3.5 -7.5 5.1-15 10.3-22.4 15.4 -4.3 2.9-8.6 5.9-12.9 8.8 -5.1 3.5-10.9 4.7-17 3.9 -8-1.1-16-2.8-24-4.2 -1.8-0.3-3.5-0.2-5 0.8 -3.1 2-6.3 4-9.5 6 -0.7 0.4-0.8 0.8-0.6 1.5 1 3.2 1.9 6.4 2.9 9.5 0.6 2 0.1 2.8-2 2.8H8.2c-1.6 0-2.1-0.5-2.3-2.1 -1.2-10.2-2.5-20.4-3.7-30.6 -0.6-5.3-1.3-10.5-1.9-15.8 -0.2-1.6 0.4-2.3 2-2.3 5.5 0 11 0 16.5 0 1.2 0 1.9 0.5 2.2 1.7 0.6 2 1.2 4 1.9 6.1 2.1-0.5 3.8-1.6 5.2-3.1 3.4-3.3 7.2-5.8 11.8-7 6.2-1.6 12.3-1.1 18.1 1.7 3.2 1.6 6.6 2.3 10.1 2.2 2.9-0.1 6 0.5 8.7-0.2 2.7-0.7 5.2-2.6 7.7-4 4.5-2.5 8.8-2.4 13.1 0.4 0.3 0.2 0.9 0.3 1.2 0.1 4.3-2.3 8-1.4 11.3 1.9C110.1 74 110.2 74.1 110.3 74.1M30.8 108.3c3.3-2.1 6.4-4.1 9.6-6 1.9-1.2 4-1.8 6.3-1.4 2.9 0.4 5.7 1 8.6 1.5 5.8 1 11.6 2.2 17.4 2.9 4.5 0.5 9-0.3 12.8-2.9 11.5-7.8 22.9-15.7 34.4-23.6 0.3-0.2 0.6-0.5 0.9-0.7 -2.4-2.3-5.5-2.9-8.4-1.3 -6.3 3.3-12.5 6.7-18.7 10.1 -0.3 0.2-0.6 0.4-0.7 0.7 -0.8 2.2-0.8 2.2-3.2 2.1 -7.1-0.3-14.3-1-21.4-0.1 -1 0.1-1.8-0.2-2-1.3 -0.2-1.2 0.4-1.8 1.5-2 1.1-0.2 2.1-0.3 3.2-0.3 5.2 0 10.3 0.1 15.5 0.2 0.9 0 1.8 0 2.8 0 -0.5-3.9-4.3-7.2-8.5-7.2 -4.9 0-9.7 0-14.6 0 -0.8 0-1.6-0.1-2.4-0.1 -2.9-0.3-5.4-1.6-8-2.7 -8-3.4-15.6-2.6-22.5 2.5 -3.1 2.3-5.5 5.4-9.5 6.4C26.1 92.8 28.4 100.4 30.8 108.3M31.3 121.6c0-0.2 0-0.3 0-0.3 -4.4-14.4-8.7-28.7-13.1-43.1 -0.1-0.3-0.7-0.7-1.1-0.8 -1.6-0.1-3.2 0-4.9 0H3.6c1.8 14.8 3.6 29.5 5.4 44.2H31.3zM107 75.9c-1.6-1.8-4-2.3-6-1.3 -1.3 0.6-2.5 1.4-3.8 2 -2.3 1.2-4.6 2.5-6.9 3.7 0.7 1.2 1.3 2.3 2 3.5C97.3 81.2 102.1 78.6 107 75.9M83.5 75.8c1.3 0.7 2.6 1.3 3.8 1.9 0.2 0.1 0.6 0.2 0.7 0.1 2.2-1.2 4.4-2.4 6.8-3.7C90.5 71.7 87 73.7 83.5 75.8" class="a"/>
    <path d="M110.3 74.1c2.8-1.6 5.9-2 9-0.8 1.9 0.7 3.5 1.9 4.7 3.5 1.2 1.7 1.1 2.3-0.6 3.5 -7.5 5.1-15 10.3-22.4 15.4 -4.3 2.9-8.6 5.9-12.9 8.8 -5.1 3.5-10.9 4.7-17 3.9 -8-1.1-16-2.8-24-4.2 -1.8-0.3-3.5-0.2-5 0.8 -3.1 2-6.3 4-9.5 6 -0.7 0.4-0.8 0.8-0.6 1.5 1 3.2 1.9 6.4 2.9 9.5 0.6 2 0.1 2.8-2 2.8H8.2c-1.6 0-2.1-0.5-2.3-2.1 -1.2-10.2-2.5-20.4-3.7-30.6 -0.6-5.3-1.3-10.5-1.9-15.8 -0.2-1.6 0.4-2.3 2-2.3 5.5 0 11 0 16.5 0 1.2 0 1.9 0.5 2.2 1.7 0.6 2 1.2 4 1.9 6.1 2.1-0.5 3.8-1.6 5.2-3.1 3.4-3.3 7.2-5.8 11.8-7 6.2-1.6 12.3-1.1 18.1 1.7 3.2 1.6 6.6 2.3 10.1 2.2 2.9-0.1 6 0.5 8.7-0.2 2.7-0.7 5.2-2.6 7.7-4 4.5-2.5 8.8-2.4 13.1 0.4 0.3 0.2 0.9 0.3 1.2 0.1 4.3-2.3 8-1.4 11.3 1.9C110.1 74 110.2 74.1 110.3 74.1M30.8 108.3c3.3-2.1 6.4-4.1 9.6-6 1.9-1.2 4-1.8 6.3-1.4 2.9 0.4 5.7 1 8.6 1.5 5.8 1 11.6 2.2 17.4 2.9 4.5 0.5 9-0.3 12.8-2.9 11.5-7.8 22.9-15.7 34.4-23.6 0.3-0.2 0.6-0.5 0.9-0.7 -2.4-2.3-5.5-2.9-8.4-1.3 -6.3 3.3-12.5 6.7-18.7 10.1 -0.3 0.2-0.6 0.4-0.7 0.7 -0.8 2.2-0.8 2.2-3.2 2.1 -7.1-0.3-14.3-1-21.4-0.1 -1 0.1-1.8-0.2-2-1.3 -0.2-1.2 0.4-1.8 1.5-2 1.1-0.2 2.1-0.3 3.2-0.3 5.2 0 10.3 0.1 15.5 0.2 0.9 0 1.8 0 2.8 0 -0.5-3.9-4.3-7.2-8.5-7.2 -4.9 0-9.7 0-14.6 0 -0.8 0-1.6-0.1-2.4-0.1 -2.9-0.3-5.4-1.6-8-2.7 -8-3.4-15.6-2.6-22.5 2.5 -3.1 2.3-5.5 5.4-9.5 6.4C26.1 92.8 28.4 100.4 30.8 108.3M31.3 121.6c0-0.2 0-0.3 0-0.3 -4.4-14.4-8.7-28.7-13.1-43.1 -0.1-0.3-0.7-0.7-1.1-0.8 -1.6-0.1-3.2 0-4.9 0H3.6c1.8 14.8 3.6 29.5 5.4 44.2H31.3zM107 75.9c-1.6-1.8-4-2.3-6-1.3 -1.3 0.6-2.5 1.4-3.8 2 -2.3 1.2-4.6 2.5-6.9 3.7 0.7 1.2 1.3 2.3 2 3.5C97.3 81.2 102.1 78.6 107 75.9M83.5 75.8c1.3 0.7 2.6 1.3 3.8 1.9 0.2 0.1 0.6 0.2 0.7 0.1 2.2-1.2 4.4-2.4 6.8-3.7C90.5 71.7 87 73.7 83.5 75.8" class="b"/>
    <path d="M84 58.1c0 1.2 0 2.2 0 3.2 0 1.5-0.6 2-2.1 2.1 -2.6 0-5.2 0-7.8 0 -10.1 0-20.2 0-30.4 0 -2.3 0-2.7-0.4-2.7-2.7 0-0.8 0-1.7 0-2.7h-1.6H14.9c-2.2 0-2.6-0.4-2.6-2.6 0-3.4 0-6.8 0-10.3 0.1-5.9 5.3-11.1 11.1-11.4 1-0.1 1.8 0.2 2.5 1 3.1 3.4 7.9 3.5 11 0.1 1-1.1 2.1-1.3 3.4-1 1.4 0.4 2.7 0.9 4.2 1.4 1.9-2.1 4.4-3.6 7.4-4.3 1.9-0.4 3.3-0.3 4.8 1.3 3.3 3.6 9.1 3.5 12.4-0.2 1.2-1.3 2.4-1.5 3.9-1.1 3.1 0.7 4.8 1.7 7.5 4.2 1.9-0.5 3.7-1 5.5-1.4 1-0.2 1.7 0.2 2.4 0.9 3 3.5 8 3.6 11.1 0.1 0.9-1 1.9-1.2 3.1-1 5.8 0.9 10.1 6 10.2 11.9 0 3.2 0 6.5 0 9.7 0 2.2-0.4 2.6-2.6 2.6H85.8 84zM44.6 60h36c0-5.8 0.2-11.5-0.1-17.2 -0.2-4.1-3.8-7.6-7.8-8.4 -0.5-0.1-1.2 0.1-1.5 0.4 -5.1 4.7-11.9 4.7-17-0.1 -0.3-0.3-1-0.5-1.4-0.4 -4.4 1-7.6 3.6-8 8C44.2 48.1 44.6 54.1 44.6 60M42.5 38.2c-1.3-0.2-2.3-1.7-3.8-0.4 -4.4 4-10.3 3.9-14.8-0.1 -0.3-0.3-1-0.5-1.5-0.4 -3.5 0.8-6 2.9-6.5 6.4 -0.6 3.6-0.4 7.3-0.6 11h25.6C41.5 49.2 40 43.6 42.5 38.2M109.4 54.8c0-3.2 0.1-6.3 0-9.4 -0.2-3.7-2.8-6.8-6.2-7.8 -0.5-0.2-1.4-0.1-1.8 0.3 -4.8 4-10.3 4-15-0.1 -0.3-0.2-0.7-0.5-1-0.4 -1 0.2-1.9 0.6-2.9 0.9 2.6 5.5 1 11.1 1.7 16.6H109.4z" class="a"/>
    <path d="M84 58.1c0 1.2 0 2.2 0 3.2 0 1.5-0.6 2-2.1 2.1 -2.6 0-5.2 0-7.8 0 -10.1 0-20.2 0-30.4 0 -2.3 0-2.7-0.4-2.7-2.7 0-0.8 0-1.7 0-2.7h-1.6H14.9c-2.2 0-2.6-0.4-2.6-2.6 0-3.4 0-6.8 0-10.3 0.1-5.9 5.3-11.1 11.1-11.4 1-0.1 1.8 0.2 2.5 1 3.1 3.4 7.9 3.5 11 0.1 1-1.1 2.1-1.3 3.4-1 1.4 0.4 2.7 0.9 4.2 1.4 1.9-2.1 4.4-3.6 7.4-4.3 1.9-0.4 3.3-0.3 4.8 1.3 3.3 3.6 9.1 3.5 12.4-0.2 1.2-1.3 2.4-1.5 3.9-1.1 3.1 0.7 4.8 1.7 7.5 4.2 1.9-0.5 3.7-1 5.5-1.4 1-0.2 1.7 0.2 2.4 0.9 3 3.5 8 3.6 11.1 0.1 0.9-1 1.9-1.2 3.1-1 5.8 0.9 10.1 6 10.2 11.9 0 3.2 0 6.5 0 9.7 0 2.2-0.4 2.6-2.6 2.6H85.8 84zM44.6 60h36c0-5.8 0.2-11.5-0.1-17.2 -0.2-4.1-3.8-7.6-7.8-8.4 -0.5-0.1-1.2 0.1-1.5 0.4 -5.1 4.7-11.9 4.7-17-0.1 -0.3-0.3-1-0.5-1.4-0.4 -4.4 1-7.6 3.6-8 8C44.2 48.1 44.6 54.1 44.6 60M42.5 38.2c-1.3-0.2-2.3-1.7-3.8-0.4 -4.4 4-10.3 3.9-14.8-0.1 -0.3-0.3-1-0.5-1.5-0.4 -3.5 0.8-6 2.9-6.5 6.4 -0.6 3.6-0.4 7.3-0.6 11h25.6C41.5 49.2 40 43.6 42.5 38.2M109.4 54.8c0-3.2 0.1-6.3 0-9.4 -0.2-3.7-2.8-6.8-6.2-7.8 -0.5-0.2-1.4-0.1-1.8 0.3 -4.8 4-10.3 4-15-0.1 -0.3-0.2-0.7-0.5-1-0.4 -1 0.2-1.9 0.6-2.9 0.9 2.6 5.5 1 11.1 1.7 16.6H109.4z" class="b"/>
    <path d="M75.1 15.1c-0.3 2.1-0.3 4.3-0.9 6.4 -1.6 5.4-7.2 9.1-12.6 8.6 -6.1-0.6-10.8-5-11.3-11 -0.2-3.1-0.3-6.2 0.2-9.2 1.2-6.1 6.9-10.2 12.9-9.6 6.3 0.6 11.1 5.7 11.3 12.1 0 0.9 0 1.8 0 2.7C74.9 15.1 75 15.1 75.1 15.1M53.4 15c0 0 0.1 0 0.1 0 0 1 0 2 0 3 0.1 4.9 3.9 8.6 8.8 8.7 4.8 0.1 8.8-3.5 9.1-8.4 0.1-2.1 0.1-4.3 0-6.5 -0.3-4.6-3.7-8-8.4-8.4 -4.1-0.4-8.2 2.6-9.2 6.8C53.5 11.8 53.5 13.4 53.4 15" class="a"/>
    <path d="M75.1 15.1c-0.3 2.1-0.3 4.3-0.9 6.4 -1.6 5.4-7.2 9.1-12.6 8.6 -6.1-0.6-10.8-5-11.3-11 -0.2-3.1-0.3-6.2 0.2-9.2 1.2-6.1 6.9-10.2 12.9-9.6 6.3 0.6 11.1 5.7 11.3 12.1 0 0.9 0 1.8 0 2.7C74.9 15.1 75 15.1 75.1 15.1M53.4 15c0 0 0.1 0 0.1 0 0 1 0 2 0 3 0.1 4.9 3.9 8.6 8.8 8.7 4.8 0.1 8.8-3.5 9.1-8.4 0.1-2.1 0.1-4.3 0-6.5 -0.3-4.6-3.7-8-8.4-8.4 -4.1-0.4-8.2 2.6-9.2 6.8C53.5 11.8 53.5 13.4 53.4 15" class="b"/>
    <path d="M104.6 20.2c0.1 2.5 0.1 5-1.1 7.4 -2.3 4.5-7.4 6.9-12.3 5.8 -4.9-1.1-8.4-5.5-8.4-10.5 0-2.3-0.1-4.7 0.3-7 0.9-5.3 5.8-9.1 11.2-8.8 5.5 0.3 9.9 4.6 10.4 10C104.7 18 104.6 19.1 104.6 20.2M101.5 20.4h-0.1c0-0.9 0-1.8 0-2.7 -0.1-4-3.2-7.1-7.3-7.4 -3.7-0.3-7.4 2.5-7.9 6.3 -0.3 2.3-0.3 4.8-0.1 7.1 0.4 3.9 3.5 6.5 7.3 6.7 3.6 0.2 6.9-2.4 7.7-6C101.5 23 101.4 21.7 101.5 20.4" class="a"/>
    <path d="M104.6 20.2c0.1 2.5 0.1 5-1.1 7.4 -2.3 4.5-7.4 6.9-12.3 5.8 -4.9-1.1-8.4-5.5-8.4-10.5 0-2.3-0.1-4.7 0.3-7 0.9-5.3 5.8-9.1 11.2-8.8 5.5 0.3 9.9 4.6 10.4 10C104.7 18 104.6 19.1 104.6 20.2M101.5 20.4h-0.1c0-0.9 0-1.8 0-2.7 -0.1-4-3.2-7.1-7.3-7.4 -3.7-0.3-7.4 2.5-7.9 6.3 -0.3 2.3-0.3 4.8-0.1 7.1 0.4 3.9 3.5 6.5 7.3 6.7 3.6 0.2 6.9-2.4 7.7-6C101.5 23 101.4 21.7 101.5 20.4" class="b"/>
    <path d="M20.1 20.3c0.2-1.8 0.2-3.6 0.6-5.3 1.3-5 6.5-8.6 11.5-8 5.7 0.7 9.9 5.2 10 10.7 0 2.4 0.1 4.8-0.3 7.1 -0.9 5.3-5.8 9.1-11.3 8.8 -5.4-0.3-9.9-4.6-10.3-9.9 -0.1-1.1 0-2.2 0-3.4C20.3 20.3 20.2 20.3 20.1 20.3M23.7 20.1h-0.1c0 0.9 0 1.8 0 2.7 0.1 4 3.1 7.1 7.3 7.5 3.8 0.3 7.4-2.5 7.9-6.4 0.3-2.3 0.3-4.8 0-7.1 -0.4-3.8-3.6-6.4-7.4-6.5 -3.7-0.1-7 2.6-7.7 6.3C23.5 17.7 23.7 18.9 23.7 20.1" class="a"/>
    <path d="M20.1 20.3c0.2-1.8 0.2-3.6 0.6-5.3 1.3-5 6.5-8.6 11.5-8 5.7 0.7 9.9 5.2 10 10.7 0 2.4 0.1 4.8-0.3 7.1 -0.9 5.3-5.8 9.1-11.3 8.8 -5.4-0.3-9.9-4.6-10.3-9.9 -0.1-1.1 0-2.2 0-3.4C20.3 20.3 20.2 20.3 20.1 20.3M23.7 20.1h-0.1c0 0.9 0 1.8 0 2.7 0.1 4 3.1 7.1 7.3 7.5 3.8 0.3 7.4-2.5 7.9-6.4 0.3-2.3 0.3-4.8 0-7.1 -0.4-3.8-3.6-6.4-7.4-6.5 -3.7-0.1-7 2.6-7.7 6.3C23.5 17.7 23.7 18.9 23.7 20.1" class="b"/>
    <path d="M19.2 120c-2.9 0-5.1-2.2-5.1-5.1 0-2.8 2.3-5.1 5.1-5.1 2.8 0 5.2 2.3 5.2 5.1C24.4 117.7 22.1 120 19.2 120M19.3 116.8c1 0 1.8-0.8 1.8-1.8 0-1-0.8-1.8-1.8-1.8 -1 0-1.9 0.8-1.9 1.9C17.4 115.9 18.4 116.8 19.3 116.8" class="a"/>
    <path d="M19.2 120c-2.9 0-5.1-2.2-5.1-5.1 0-2.8 2.3-5.1 5.1-5.1 2.8 0 5.2 2.3 5.2 5.1C24.4 117.7 22.1 120 19.2 120M19.3 116.8c1 0 1.8-0.8 1.8-1.8 0-1-0.8-1.8-1.8-1.8 -1 0-1.9 0.8-1.9 1.9C17.4 115.9 18.4 116.8 19.3 116.8" class="b"/>
</svg>