<svg xmlns="http://www.w3.org/2000/svg" width="32" height="32" viewBox="0 0 32 32">
<style>
  .a{
    fill:#9F8F27;
  }
</style>
    <path d="M8.4 31.9H0.1V9.8h8.2V31.9zM2 30h4.5V11.6H2V30z" class="a"/>
    <path d="M31.9 31.9h-8l0-9.8c0-1.6-0.6-2.9-1.7-3.5 -0.8-0.4-1.6-0.4-2.5 0l-0.1 13.3h-8.4V9.8h8.4v0.9c2.6-1.1 5.4-0.9 7.8 0.5 2.7 1.6 4.5 4.4 4.5 7.3v13.4H31.9zM25.7 30h4.3V18.5c0-2.2-1.4-4.5-3.5-5.7 -1-0.6-2.2-0.9-3.4-0.9h0c-1.3 0-2.6 0.4-3.9 1.1l-1.4 0.8v-2.2h-4.7v18.4h4.7l0.1-12.5 0.4-0.3c1.5-1 3.3-1.1 4.8-0.3 0.8 0.5 1.5 1.2 2 2 0.5 0.9 0.7 2 0.7 3.1V30z" class="a"/>
    <path d="M4.2 8.4c-2.3 0-4.1-1.9-4.1-4.1 0-2.3 1.9-4.1 4.1-4.1 2.3 0 4.1 1.9 4.1 4.1C8.4 6.5 6.5 8.4 4.2 8.4M4.2 2c-1.2 0-2.3 1-2.3 2.3 0 1.3 1 2.3 2.3 2.3s2.3-1 2.3-2.3C6.5 3 5.5 2 4.2 2" class="a"/>
</svg>