<svg xmlns="http://www.w3.org/2000/svg" width="383" height="183" viewBox="0 0 383 183">
<style>
  .a{
    fill:#9F9028;
  }
</style>
        <text transform="matrix(1 0 0 1 83.2637 182.5723)" font-family="'CircularStd-Bold'" font-size="14.4879" class="a">
          E
        </text>
        <text transform="matrix(1 0 0 1 96.9541 182.5723)" font-family="'CircularStd-Bold'" font-size="14.4879" class="a">
          X
        </text>
        <text transform="matrix(1 0 0 1 111.2402 182.5723)" font-family="'CircularStd-Bold'" font-size="14.4879" class="a">
          C
        </text>
        <text transform="matrix(1 0 0 1 126.1611 182.5723)" font-family="'CircularStd-Bold'" font-size="14.4879" class="a">
          L
        </text>
        <text transform="matrix(1 0 0 1 139.3613 182.5723)" font-family="'CircularStd-Bold'" font-size="14.4879" class="a">
          U
        </text>
        <text transform="matrix(1 0 0 1 155.2393 182.5723)" font-family="'CircularStd-Bold'" font-size="14.4879" class="a">
          S
        </text>
        <text transform="matrix(1 0 0 1 168.8867 182.5723)" font-family="'CircularStd-Bold'" font-size="14.4879" class="a">
          I
        </text>
        <text transform="matrix(1 0 0 1 178.8828 182.5723)" font-family="'CircularStd-Bold'" font-size="14.4879" class="a">
          V
        </text>
        <text transform="matrix(1 0 0 1 193.4727 182.5723)">
          <tspan font-family="'CircularStd-Bold'" font-size="14.4879" letter-spacing="6" class="a">
            E HO
          </tspan>
          <tspan x="55.7" font-family="'CircularStd-Bold'" font-size="14.4879" class="a">
            M
          </tspan>
        </text>
        <text transform="matrix(1 0 0 1 267.3457 182.5723)" font-family="'CircularStd-Bold'" font-size="14.4879" class="a">
          E
        </text>
        <text transform="matrix(1 0 0 1 280.9941 182.5723)" font-family="'CircularStd-Bold'" font-size="14.4879" class="a">
          S
        </text>
        <polygon points="0.2 145.5 0.2 101.8 26.8 101.8 26.8 107.4 6.3 107.4 6.3 120.8 24.9 120.8 24.9 126.5 6.3 126.5 6.3 139.9 26.8 139.9 26.8 145.5 " class="a"/>
        <polygon points="85.7 101.8 92 101.8 75.2 145.5 69.2 145.5 52.7 101.8 59.1 101.8 72.4 137.7 " class="a"/>
        <polygon points="119.8 145.5 119.8 101.8 146.4 101.8 146.4 107.4 125.9 107.4 125.9 120.8 144.5 120.8 144.5 126.5 125.9 126.5 125.9 139.9 146.4 139.9 146.4 145.5 " class="a"/>
        <path d="M189.9 127.6h-6.5v17.9h-6.1v-43.8h16.5c8.3 0 13.4 5.8 13.4 13 0 6.3-4 11.2-10.6 12.4l10.4 18.3h-7L189.9 127.6zM192.6 122.2c4.9 0 8.3-2.9 8.3-7.4 0-4.6-3.3-7.6-8.3-7.6h-9.3v15H192.6z" class="a"/>
        <polygon points="237.1 145.5 237.1 101.8 263.7 101.8 263.7 107.4 243.1 107.4 243.1 120.8 261.8 120.8 261.8 126.5 243.1 126.5 243.1 139.9 263.7 139.9 263.7 145.5 " class="a"/>
        <path d="M317 113.6c-0.5-3.1-3.2-7.5-9.3-7.5 -4.9 0-8.5 3.2-8.5 7.3 0 3.1 1.9 5.6 5.6 6.4l6.5 1.4c7.3 1.6 11.4 6.2 11.4 12.3 0 6.8-5.8 13-15.1 13 -10.6 0-15.6-6.8-16.4-13l5.8-1.9c0.4 4.9 3.9 9.4 10.5 9.4 6 0 9-3.1 9-7 0-3.1-2.2-5.9-6.5-6.8l-6.2-1.4c-6.2-1.4-10.7-5.4-10.7-12 0-6.8 6.4-13 14.4-13 9.9 0 13.8 6.1 14.8 10.9L317 113.6z" class="a"/>
        <polygon points="368.2 107.4 368.2 145.5 362.1 145.5 362.1 107.4 347.5 107.4 347.5 101.8 382.8 101.8 382.8 107.4 " class="a"/>
    <path d="M171.7 61.6c-6.4-6.4-12.8-12.8-19.3-19.2 -1-1-1.1-1.7 0-2.7 12.5-12.5 25-25 37.5-37.5 2.1-2.1 1.6-2.6 4.2 0 12.4 12.4 24.9 24.9 37.3 37.3 1.5 1.6 1.6 1.6 0 3.1 -12.6 12.6-25.3 25.3-37.9 37.9 -1.5 1.5-1.5 1.5-3 0C184.3 74.2 178 67.9 171.7 61.6M210.6 22.6c-4.4 0-8.5 0-12.7 0 -0.4 0-1 0.5-1.1 0.9 -1.2 2.8-2.3 5.7-3.3 8.6 -0.2 0.4 0.1 1.2 0.4 1.5 1.8 1.9 3.7 3.8 5.7 5.7 0.4 0.3 1.2 0.5 1.7 0.3 2.7-1 5.4-2.1 8.2-3.1 1-0.3 1.2-0.9 1.2-1.9C210.5 30.6 210.6 26.7 210.6 22.6M210.6 59.5c0-4.3 0-8.4-0.1-12.4 0-0.4-0.5-1.1-0.9-1.3 -2.8-1.2-5.7-2.3-8.5-3.4 -0.4-0.1-1 0-1.3 0.2 -2 1.9-4 3.8-5.9 5.8 -0.3 0.3-0.5 1-0.4 1.4 1.1 2.9 2.2 5.8 3.4 8.7 0.2 0.4 0.8 0.8 1.2 0.8C202.1 59.5 206.2 59.5 210.6 59.5M173.5 59.5c4.4 0 8.5 0 12.7 0 0.3 0 0.9-0.3 1-0.6 1.2-2.9 2.3-5.8 3.4-8.7 0.2-0.4 0-1.2-0.3-1.5 -1.9-2-3.9-4-5.9-5.9 -0.3-0.3-0.9-0.4-1.3-0.3 -2.9 1.1-5.8 2.2-8.7 3.4 -0.4 0.1-0.8 0.7-0.8 1C173.6 51 173.5 55.2 173.5 59.5M173.5 22.6c0 4.2 0 8.3 0.1 12.5 0 0.5 0.6 1.1 1.1 1.3 2.7 1.1 5.4 2.2 8.1 3.2 0.5 0.2 1.4-0.1 1.8-0.4 1.9-1.8 3.8-3.6 5.5-5.5 0.3-0.4 0.6-1.2 0.4-1.7 -1-2.8-2.2-5.5-3.2-8.3 -0.3-0.8-0.7-1.1-1.5-1.1C181.8 22.6 177.8 22.6 173.5 22.6M192 78.7c1.9-4 3.6-7.6 5.2-11.3 0.3-0.7 0.3-1.6 0.1-2.4 -1-2.9-2.1-5.7-3.3-8.6 -0.6-1.6-1.3-3.1-2.1-5 -1.9 4.8-3.6 9.2-5.3 13.7 -0.2 0.6-0.3 1.4 0 2C188.3 70.8 190.1 74.5 192 78.7M154.5 41c3.9 1.8 7.5 3.6 11.1 5.2 0.7 0.3 1.7 0.3 2.4 0.1 2.7-0.9 5.4-2 8-3.1 1.7-0.7 3.5-1.4 5.3-2.1 -0.2-0.2-0.2-0.3-0.3-0.3 -3-1.2-6.2-2.2-9.1-3.6 -3.4-1.7-6.5-2.2-9.7 0.3 -0.2 0.1-0.4 0.1-0.6 0.2C159.3 38.7 157 39.8 154.5 41M192 30.6c1.8-4.5 3.3-8.6 5-12.6 0.7-1.6 0.6-2.9-0.2-4.3 -0.9-1.7-1.7-3.4-2.5-5.2 -0.7-1.6-1.5-3.1-2.3-5 -1.3 2.7-2.2 5.3-3.6 7.5 -2.1 3.3-2.3 6.5-0.2 9.9 0.1 0.1 0.1 0.3 0.1 0.4C189.5 24.2 190.7 27.2 192 30.6M202.5 41c5 2 9.7 3.8 14.4 5.6 0.4 0.2 1.1-0.1 1.5-0.3 3.1-1.4 6.2-2.9 9.3-4.3 0.5-0.3 1.1-0.6 1.8-1 -4-1.9-7.8-3.7-11.6-5.4 -0.5-0.2-1.2-0.1-1.7 0.1C211.8 37.4 207.4 39.1 202.5 41M192 34.4l-6.6 6.6 6.6 6.7 6.6-6.6L192 34.4zM226.8 37.7c0-0.1 0.1-0.1 0.1-0.2l-14.2-14.2c-0.1 3.8-0.1 7.8-0.2 11.8 0.3-0.1 0.6-0.2 0.8-0.3 2.7-1.6 5.2-1.5 7.8 0.2C222.9 36.1 224.9 36.8 226.8 37.7M210 20.6L195.5 6.2c1.1 2.8 2.4 5.5 3.6 8.3 0.3 0.7 0.3 1.6 0.1 2.4 -0.3 1.3-0.9 2.6-1.4 3.7C202 20.6 205.9 20.6 210 20.6M171.6 35.2c0-4.1 0.1-8 0.1-12.1L157.3 37.5c2-0.7 3.9-1.4 5.6-2.5 2.6-1.6 5.1-1.9 7.7-0.2C170.9 35 171.2 35 171.6 35.2M188.6 6.4c-0.1 0-0.1-0.1-0.2-0.1l-14.3 14.3c4.1 0 8.1 0 12.1 0 -0.3-0.7-0.5-1.5-0.8-2.1 -1.1-2-0.8-3.8 0.3-5.8C186.8 10.7 187.7 8.5 188.6 6.4M212.5 46.9c0 4 0 7.9 0 11.9l14.3-14.3c-2.3 0.9-4.6 1.8-6.7 3 -1.8 1-3.4 1.3-5.2 0.3C214.1 47.4 213.3 47.2 212.5 46.9M171.6 58.8c0-4 0-7.9 0.1-11.9 -1 0.4-2 0.7-2.9 1.2 -1.3 0.7-2.5 0.6-3.8-0.1 -2.4-1.2-4.9-2.3-7.4-3.5 0 0.1-0.1 0.1-0.1 0.2L171.6 58.8zM209.7 61.7c-3.8-0.1-7.8-0.1-11.8-0.2 0.4 1 0.8 2.1 1.3 3.1 0.5 1.2 0.5 2.2-0.1 3.4 -1.3 2.5-2.4 5.1-3.7 7.7 0.1 0 0.1 0.1 0.2 0.1L209.7 61.7zM174.2 61.4l14.2 14.2c-1.1-2.9-2.4-5.5-3.6-8.3 -0.3-0.6-0.2-1.4 0-2.1 0.4-1.3 0.9-2.5 1.4-3.8C182.1 61.4 178.3 61.4 174.2 61.4" class="a"/>
</svg>