<svg xmlns="http://www.w3.org/2000/svg" width="223" height="107" viewBox="0 0 223 107">
<style>
  .a{
    fill:#FFF;
  }
</style>
        <text transform="matrix(1 0 0 1 48.4961 106.5127)" font-family="'CircularStd-Bold'" font-size="8.4333" class="a">
          E
        </text>
        <text transform="matrix(1 0 0 1 56.4653 106.5127)" font-family="'CircularStd-Bold'" font-size="8.4333" class="a">
          X
        </text>
        <text transform="matrix(1 0 0 1 64.7813 106.5127)" font-family="'CircularStd-Bold'" font-size="8.4333" class="a">
          C
        </text>
        <text transform="matrix(1 0 0 1 73.4663 106.5127)" font-family="'CircularStd-Bold'" font-size="8.4333" class="a">
          L
        </text>
        <text transform="matrix(1 0 0 1 81.1499 106.5127)" font-family="'CircularStd-Bold'" font-size="8.4333" class="a">
          U
        </text>
        <text transform="matrix(1 0 0 1 90.3926 106.5127)" font-family="'CircularStd-Bold'" font-size="8.4333" class="a">
          S
        </text>
        <text transform="matrix(1 0 0 1 98.3369 106.5127)" font-family="'CircularStd-Bold'" font-size="8.4333" class="a">
          I
        </text>
        <text transform="matrix(1 0 0 1 104.1558 106.5127)" font-family="'CircularStd-Bold'" font-size="8.4333" class="a">
          V
        </text>
        <text transform="matrix(1 0 0 1 112.6484 106.5127)">
          <tspan font-family="'CircularStd-Bold'" font-size="8.4333" letter-spacing="3" class="a">
            E HO
          </tspan>
          <tspan x="32.4" font-family="'CircularStd-Bold'" font-size="8.4333" class="a">
            M
          </tspan>
        </text>
        <text transform="matrix(1 0 0 1 155.6504 106.5127)" font-family="'CircularStd-Bold'" font-size="8.4333" class="a">
          E
        </text>
        <text transform="matrix(1 0 0 1 163.5938 106.5127)" font-family="'CircularStd-Bold'" font-size="8.4333" class="a">
          S
        </text>
        <polygon points="0.1 84.9 0.1 59.5 15.6 59.5 15.6 62.7 3.7 62.7 3.7 70.6 14.5 70.6 14.5 73.9 3.7 73.9 3.7 81.7 15.6 81.7 15.6 84.9 " class="a"/>
        <polygon points="49.9 59.5 53.6 59.5 43.8 84.9 40.3 84.9 30.7 59.5 34.5 59.5 42.1 80.4 " class="a"/>
        <polygon points="69.8 84.9 69.8 59.5 85.3 59.5 85.3 62.7 73.3 62.7 73.3 70.6 84.1 70.6 84.1 73.9 73.3 73.9 73.3 81.7 85.3 81.7 85.3 84.9 " class="a"/>
        <path d="M110.6 74.5h-3.8v10.4h-3.6V59.5h9.6c4.8 0 7.8 3.4 7.8 7.6 0 3.7-2.3 6.5-6.2 7.2l6.1 10.7h-4.1L110.6 74.5zM112.2 71.4c2.9 0 4.8-1.7 4.8-4.3 0-2.7-1.9-4.4-4.8-4.4h-5.4v8.7H112.2z" class="a"/>
        <polygon points="138 84.9 138 59.5 153.5 59.5 153.5 62.7 141.6 62.7 141.6 70.6 152.4 70.6 152.4 73.9 141.6 73.9 141.6 81.7 153.5 81.7 153.5 84.9 " class="a"/>
        <path d="M184.6 66.4c-0.3-1.8-1.8-4.3-5.4-4.3 -2.9 0-4.9 1.9-4.9 4.2 0 1.8 1.1 3.2 3.3 3.7l3.8 0.8c4.2 0.9 6.6 3.6 6.6 7.1 0 4-3.4 7.5-8.8 7.5 -6.1 0-9.1-4-9.5-7.6l3.4-1.1c0.3 2.8 2.3 5.5 6.1 5.5 3.5 0 5.2-1.8 5.2-4.1 0-1.8-1.3-3.4-3.8-4l-3.6-0.8c-3.6-0.8-6.2-3.2-6.2-7 0-4 3.7-7.6 8.4-7.6 5.8 0 8 3.6 8.6 6.3L184.6 66.4z" class="a"/>
        <polygon points="214.3 62.7 214.3 84.9 210.8 84.9 210.8 62.7 202.3 62.7 202.3 59.5 222.9 59.5 222.9 62.7 " class="a"/>
    <path d="M99.9 36.1c-3.7-3.7-7.4-7.5-11.2-11.2 -0.6-0.6-0.6-1 0-1.6 7.3-7.3 14.5-14.6 21.8-21.8 1.2-1.2 0.9-1.5 2.5 0 7.2 7.2 14.5 14.5 21.7 21.7 0.9 0.9 0.9 0.9 0 1.8 -7.4 7.4-14.7 14.7-22.1 22.1 -0.8 0.8-0.9 0.8-1.7 0C107.3 43.4 103.6 39.7 99.9 36.1M122.6 13.4c-2.5 0-5 0-7.4 0 -0.2 0-0.6 0.3-0.6 0.5 -0.7 1.6-1.3 3.3-1.9 5 -0.1 0.2 0 0.7 0.2 0.9 1.1 1.1 2.2 2.2 3.3 3.3 0.2 0.2 0.7 0.3 1 0.2 1.6-0.6 3.2-1.2 4.8-1.8 0.6-0.2 0.7-0.5 0.7-1.1C122.6 18.1 122.6 15.8 122.6 13.4M122.6 34.9c0-2.5 0-4.9 0-7.2 0-0.3-0.3-0.6-0.5-0.7 -1.6-0.7-3.3-1.3-5-2 -0.2-0.1-0.6 0-0.7 0.1 -1.2 1.1-2.3 2.2-3.4 3.4 -0.2 0.2-0.3 0.6-0.2 0.8 0.6 1.7 1.3 3.4 2 5.1 0.1 0.2 0.4 0.5 0.7 0.5C117.7 34.9 120.1 34.9 122.6 34.9M101 34.8c2.5 0 5 0 7.4 0 0.2 0 0.5-0.2 0.6-0.4 0.7-1.7 1.4-3.4 2-5 0.1-0.3 0-0.7-0.2-0.9 -1.1-1.2-2.3-2.3-3.4-3.4 -0.2-0.2-0.5-0.2-0.7-0.2 -1.7 0.6-3.4 1.3-5.1 2 -0.2 0.1-0.5 0.4-0.5 0.6C101.1 29.9 101.1 32.3 101 34.8M101 13.4c0 2.5 0 4.9 0.1 7.3 0 0.3 0.4 0.6 0.6 0.8 1.6 0.7 3.1 1.3 4.7 1.8 0.3 0.1 0.8 0 1-0.3 1.1-1 2.2-2.1 3.2-3.2 0.2-0.2 0.3-0.7 0.2-1 -0.6-1.6-1.3-3.2-1.9-4.8 -0.2-0.4-0.4-0.6-0.9-0.6C105.9 13.4 103.5 13.4 101 13.4M111.8 46c1.1-2.3 2.1-4.4 3-6.6 0.2-0.4 0.2-1 0-1.4 -0.6-1.7-1.2-3.3-1.9-5 -0.4-0.9-0.7-1.8-1.2-2.9 -1.1 2.8-2.1 5.4-3.1 8 -0.1 0.3-0.2 0.8 0 1.1C109.7 41.5 110.7 43.6 111.8 46M90 24.1c2.3 1.1 4.3 2.1 6.5 3 0.4 0.2 1 0.2 1.4 0 1.6-0.5 3.1-1.2 4.7-1.8 1-0.4 2-0.8 3.1-1.2 -0.1-0.1-0.1-0.2-0.2-0.2 -1.8-0.7-3.6-1.3-5.3-2.1 -2-1-3.8-1.3-5.7 0.2 -0.1 0.1-0.2 0.1-0.3 0.1C92.8 22.8 91.4 23.4 90 24.1M111.8 18c1-2.6 1.9-5 2.9-7.3 0.4-0.9 0.4-1.7-0.1-2.5 -0.5-1-1-2-1.4-3 -0.4-0.9-0.8-1.8-1.4-2.9 -0.8 1.6-1.3 3.1-2.1 4.4 -1.2 1.9-1.4 3.8-0.1 5.8 0 0.1 0.1 0.2 0.1 0.2C110.4 14.3 111 16.1 111.8 18M117.9 24.1c2.9 1.1 5.6 2.2 8.4 3.3 0.2 0.1 0.6-0.1 0.9-0.2 1.8-0.8 3.6-1.7 5.4-2.5 0.3-0.1 0.6-0.3 1-0.6 -2.4-1.1-4.5-2.1-6.7-3.1 -0.3-0.1-0.7-0.1-1 0.1C123.3 22 120.7 23 117.9 24.1M111.8 20.3l-3.8 3.8 3.9 3.9 3.8-3.8L111.8 20.3zM132.1 22.2c0 0 0-0.1 0.1-0.1l-8.3-8.3c0 2.2-0.1 4.5-0.1 6.9 0.2-0.1 0.3-0.1 0.5-0.2 1.5-0.9 3-0.9 4.5 0.1C129.8 21.3 131 21.7 132.1 22.2M122.3 12.2l-8.4-8.4c0.6 1.6 1.4 3.2 2.1 4.8 0.2 0.4 0.2 1 0.1 1.4 -0.2 0.8-0.5 1.5-0.8 2.2C117.6 12.2 119.9 12.2 122.3 12.2M99.9 20.7c0-2.4 0-4.7 0.1-7l-8.4 8.4c1.1-0.4 2.3-0.8 3.3-1.4 1.5-0.9 2.9-1.1 4.5-0.1C99.5 20.6 99.7 20.6 99.9 20.7M109.8 4c0 0-0.1 0-0.1-0.1l-8.3 8.3c2.4 0 4.7 0 7 0 -0.2-0.4-0.3-0.9-0.5-1.2 -0.7-1.2-0.5-2.2 0.2-3.4C108.7 6.5 109.3 5.2 109.8 4M123.8 27.6c0 2.3 0 4.6 0 7l8.3-8.3c-1.3 0.5-2.7 1-3.9 1.7 -1 0.6-2 0.8-3 0.2C124.7 27.9 124.2 27.7 123.8 27.6M99.9 34.5c0-2.3 0-4.6 0-7 -0.6 0.2-1.2 0.4-1.7 0.7 -0.8 0.4-1.5 0.3-2.2-0.1 -1.4-0.7-2.9-1.4-4.3-2 0 0 0 0.1-0.1 0.1L99.9 34.5zM122.1 36.2c-2.2 0-4.5-0.1-6.8-0.1 0.2 0.6 0.5 1.2 0.7 1.8 0.3 0.7 0.3 1.3-0.1 2 -0.8 1.5-1.4 3-2.1 4.5 0 0 0.1 0 0.1 0.1L122.1 36.2zM101.4 36l8.3 8.3c-0.6-1.7-1.4-3.2-2.1-4.8 -0.2-0.3-0.1-0.8 0-1.2 0.2-0.7 0.5-1.5 0.8-2.2C106 36 103.8 36 101.4 36" class="a"/>
</svg>