<svg xmlns="http://www.w3.org/2000/svg" width="129" height="125" viewBox="0 0 129 125">
  <path d="M53.2 52.1c3.6-8.9 7.1-17.6 10.6-26.2 3.2-8 6.5-16 9.7-24 0.5-1.2 1.2-2 2.6-2 1.3 0 2.2 0.8 2.5 2 0.1 0.4 0.4 0.8 0.5 1.2 6.5 16.1 13 32.1 19.5 48.2 9.2 22.6 18.3 45.3 27.5 67.9 0.1 0.2 0.1 0.3 0.2 0.5 2.4 4.5 0.1 5.4-3.7 5.4 -23.3-0.1-46.6 0-69.9 0H6.3c-0.6 0-1.2 0-1.8 0 -2.4-0.1-3.4-1.7-2.6-3.9 2.2-5.7 4.5-11.4 6.7-17.1 9.9-25.2 19.8-50.3 29.7-75.5 0.5-1.3 1.1-2.4 2.8-2.4 1.7 0 2.3 1.1 2.8 2.4 2.9 7.5 5.9 14.9 8.8 22.4C52.8 51.3 52.9 51.5 53.2 52.1M31.2 119.9h89.7c-0.2-0.5-0.3-0.9-0.4-1.2 -6.5-16-12.9-31.9-19.4-47.9 -0.3-0.7-0.9-1.4-1.6-1.8 -8.7-5-17.3-10-26-14.8 -2.3-1.3-4.2-2.7-5.3-5.1 -1-2.3-2.6-2.9-5-2.8 -1.5 0.1-2.3 0.4-2.9 1.9 -8.1 20.2-16.3 40.3-24.5 60.4C34.2 112.5 32.8 116.1 31.2 119.9M7.9 120c0.8 0 1.3 0.1 1.8 0.1 4.8 0 9.6 0 14.4 0 1.3 0 1.8-0.5 2.3-1.6 4.5-11.3 9.1-22.5 13.7-33.8 1.6-3.9 3.1-7.7 4.7-11.6 -1.8-1-3.3-2.1-5-2.9 -2.4-1.2-4.4-2.8-5.5-5.3 -0.7-1.6-2-1-3.2-1.1 -1.2-0.1-1.3 0.9-1.6 1.6 -5 12.6-9.9 25.2-14.9 37.8C12.3 108.6 10.2 114.2 7.9 120M97.1 61.8c0.1-0.1 0.2-0.2 0.3-0.3 -7-17.3-14.1-34.7-21.2-52.4 -4.5 11-8.7 21.5-13.1 32.3 1.5 0 2.7 0.1 3.9 0 1.6-0.1 2.8 0.5 3.6 2 1.9 4 5 6.6 8.9 8.3 0.5 0.2 0.9 0.5 1.3 0.7L97.1 61.8zM46.6 68.3c1.2-3 2.4-5.9 3.5-8.8 0.1-0.3 0.1-0.8-0.1-1.1 -2.9-7.5-5.9-15-9-22.9 -3.1 7.9-6 15.4-9.1 23 0.7 0.1 1.1 0.2 1.5 0.1 2-0.3 3.4 0.5 4.2 2.3C39.3 65 43.3 66.2 46.6 68.3" fill="#A49658"/>
</svg>