<svg xmlns="http://www.w3.org/2000/svg" width="27" height="36" viewBox="0 0 27 36">
  <path d="M23.6 20.7c-0.4-0.5-0.8-0.9-1.3-1.4 -1.1-1-2.4-1.8-3.8-2.4 2.5-1.6 4.2-4.5 4.2-7.7 0-5.1-4.1-9.2-9.2-9.2S4.3 4.1 4.3 9.2c0 3.2 1.7 6.1 4.2 7.7 -1.4 0.6-2.7 1.4-3.8 2.4 -0.8 0.7-1.5 1.5-2.1 2.4 -1.6 2.2-2.5 4.9-2.5 7.7 0 0.4 0 0.8 0.1 1.3l0.1 1.4 1.2 0.7c3.6 2.1 7.8 3.2 12 3.2 4.2 0 8.4-1.1 12-3.2l1.2-0.7 0.1-1.4c0-0.4 0.1-0.8 0.1-1.3C26.9 26.1 25.6 23 23.6 20.7M6.8 9.2c0-3.7 3-6.7 6.7-6.7 3.7 0 6.7 3 6.7 6.7 0 3.7-3 6.7-6.7 6.7C9.8 15.9 6.8 12.9 6.8 9.2M24.1 30.4c-3.2 1.9-6.8 2.9-10.6 2.9 -3.8 0-7.4-1-10.6-2.9 0-0.3 0-0.7 0-1 0-5.9 4.8-10.7 10.7-10.7 5.9 0 10.7 4.8 10.7 10.7C24.2 29.8 24.1 30.1 24.1 30.4" fill="#FFF"/>
</svg>