<svg xmlns="http://www.w3.org/2000/svg" width="217" height="217" viewBox="0 0 217 217">
<style>
  .a{
    fill:#F7F6F6;
  }
</style>
  <g opacity="0.8">
      <path d="M0.3 108.5C0.3 48.7 48.8 0.2 108.6 0.3c59.9 0.1 108.2 48.6 108.1 108.7 0 59.6-48.7 107.9-108.8 107.8C48.6 216.7 0.2 168.1 0.3 108.5zM10.5 108.6c0 54.1 43.9 97.9 98.1 97.9 54.2 0 98-44 97.9-98.4 0-53.8-44.1-97.7-98.1-97.6C54.2 10.5 10.4 54.4 10.5 108.6z" class="a"/>
      <path d="M84.6 153.6c0-30.2 0-60 0-90.2 22.8 15.1 45.5 30 68.4 45.1C130.2 123.5 107.5 138.5 84.6 153.6z" class="a"/>
  </g>
</svg>