<?xml version="1.0" encoding="utf-8"?>
<!-- Generator: Adobe Illustrator 16.0.0, SVG Export Plug-In . SVG Version: 6.00 Build 0)  -->
<!DOCTYPE svg PUBLIC "-//W3C//DTD SVG 1.1//EN" "http://www.w3.org/Graphics/SVG/1.1/DTD/svg11.dtd">
<svg version="1.1" id="Capa_1" xmlns="http://www.w3.org/2000/svg" xmlns:xlink="http://www.w3.org/1999/xlink" x="0px" y="0px"
	 width="125px" height="125px" viewBox="0 0 125 125" enable-background="new 0 0 125 125" xml:space="preserve">
<g>
	<path fill="#A49658" d="M62.501,1C28.511,1,1.003,28.507,1.003,62.5c0,33.987,27.502,61.5,61.498,61.5
		c33.992,0,61.496-27.508,61.496-61.5C123.997,28.51,96.493,1,62.501,1 M110.564,87.726H92.179
		c1.535-6.637,2.475-13.918,2.699-21.622h21.792C116.158,73.867,114.011,81.188,110.564,87.726 M8.329,66.104h21.797
		c0.221,7.704,1.157,14.985,2.695,21.622H14.433C10.993,81.188,8.839,73.867,8.329,66.104 M14.433,37.276h18.389
		c-1.538,6.633-2.475,13.917-2.695,21.619H8.329C8.839,51.136,10.993,43.814,14.433,37.276 M66.101,30.068V8.818
		c8.094,2.731,13.604,13.207,16.475,21.25H66.101z M84.754,37.276c1.681,6.656,2.675,13.983,2.909,21.619H66.101V37.276H84.754z
		 M58.894,8.818v21.25H42.422C45.3,22.028,50.802,11.549,58.894,8.818 M58.894,37.276v21.619H37.333
		c0.24-7.636,1.23-14.963,2.913-21.619H58.894z M37.333,66.104h21.561v21.622H40.246C38.563,81.063,37.573,73.739,37.333,66.104
		 M58.894,94.934v21.249c-8.085-2.732-13.594-13.206-16.472-21.249H58.894z M66.101,116.183V94.934h16.475
		C79.705,102.969,74.194,113.45,66.101,116.183 M66.101,87.726V66.104h21.563c-0.234,7.636-1.229,14.959-2.909,21.622H66.101z
		 M94.878,58.896c-0.225-7.702-1.164-14.986-2.699-21.619h18.386c3.446,6.538,5.594,13.859,6.105,21.619H94.878z M106.017,30.068
		h-15.82c-2.399-7.467-5.621-13.84-9.439-18.701C90.905,15.002,99.676,21.578,106.017,30.068 M44.247,11.367
		C40.421,16.229,37.2,22.602,34.8,30.068H18.983C25.325,21.578,34.095,15.002,44.247,11.367 M18.983,94.934H34.8
		c2.4,7.467,5.621,13.837,9.447,18.7C34.095,109.995,25.325,103.423,18.983,94.934 M80.757,113.634
		c3.818-4.863,7.04-11.233,9.439-18.7h15.82C99.676,103.423,90.905,109.995,80.757,113.634"/>
	<path fill="none" stroke="#F6F6F5" stroke-width="2.6637" stroke-miterlimit="10" d="M62.501,1C28.511,1,1.003,28.507,1.003,62.5
		c0,33.987,27.502,61.5,61.498,61.5c33.992,0,61.496-27.508,61.496-61.5C123.997,28.51,96.493,1,62.501,1 M110.564,87.726H92.179
		c1.535-6.637,2.475-13.918,2.699-21.622h21.792C116.158,73.867,114.011,81.188,110.564,87.726 M8.329,66.104h21.797
		c0.221,7.704,1.157,14.985,2.695,21.622H14.433C10.993,81.188,8.839,73.867,8.329,66.104 M14.433,37.276h18.389
		c-1.538,6.633-2.475,13.917-2.695,21.619H8.329C8.839,51.136,10.993,43.814,14.433,37.276 M66.101,30.068V8.818
		c8.094,2.731,13.604,13.207,16.475,21.25H66.101z M84.754,37.276c1.681,6.656,2.675,13.983,2.909,21.619H66.101V37.276H84.754z
		 M58.894,8.818v21.25H42.422C45.3,22.028,50.802,11.549,58.894,8.818 M58.894,37.276v21.619H37.333
		c0.24-7.636,1.23-14.963,2.913-21.619H58.894z M37.333,66.104h21.561v21.622H40.246C38.563,81.063,37.573,73.739,37.333,66.104
		 M58.894,94.934v21.249c-8.085-2.732-13.594-13.206-16.472-21.249H58.894z M66.101,116.183V94.934h16.475
		C79.705,102.969,74.194,113.45,66.101,116.183 M66.101,87.726V66.104h21.563c-0.234,7.636-1.229,14.959-2.909,21.622H66.101z
		 M94.878,58.896c-0.225-7.702-1.164-14.986-2.699-21.619h18.386c3.446,6.538,5.594,13.859,6.105,21.619H94.878z M106.017,30.068
		h-15.82c-2.399-7.467-5.621-13.84-9.439-18.701C90.905,15.002,99.676,21.578,106.017,30.068 M44.247,11.367
		C40.421,16.229,37.2,22.602,34.8,30.068H18.983C25.325,21.578,34.095,15.002,44.247,11.367 M18.983,94.934H34.8
		c2.4,7.467,5.621,13.837,9.447,18.7C34.095,109.995,25.325,103.423,18.983,94.934 M80.757,113.634
		c3.818-4.863,7.04-11.233,9.439-18.7h15.82C99.676,103.423,90.905,109.995,80.757,113.634"/>
</g>
</svg>
